<svg id="disability" xmlns="http://www.w3.org/2000/svg" width="21.389" height="21.389" viewBox="0 0 21.389 21.389">
  <path id="Path_34484" data-name="Path 34484" d="M19.091,0H2.3A2.3,2.3,0,0,0,0,2.3V19.091a2.3,2.3,0,0,0,2.3,2.3H19.091a2.3,2.3,0,0,0,2.3-2.3V2.3A2.3,2.3,0,0,0,19.091,0Zm1.044,19.091a1.046,1.046,0,0,1-1.044,1.044H2.3a1.046,1.046,0,0,1-1.044-1.044V2.3A1.046,1.046,0,0,1,2.3,1.253H19.091A1.046,1.046,0,0,1,20.136,2.3Z" fill="#b9c1cc"/>
  <path id="Path_34485" data-name="Path 34485" d="M101.416,70.844a.617.617,0,0,0-.034-.077,1.888,1.888,0,0,0-.747-.878A1.879,1.879,0,0,0,98.99,67.1h-2.3v-.878a1.87,1.87,0,0,0-.405-1.164,2.3,2.3,0,1,0-2.949,0,1.87,1.87,0,0,0-.405,1.164V68.23a4.553,4.553,0,1,0,5.136,5.136h.264l.979,2.689a1.876,1.876,0,0,0,2.4,1.125l0,0a1.882,1.882,0,0,0,1.124-2.409Zm-6.6-8.59A1.044,1.044,0,1,1,93.768,63.3,1.046,1.046,0,0,1,94.812,62.253ZM93.559,76.039a3.3,3.3,0,0,1-.627-6.539v1.986a1.882,1.882,0,0,0,1.88,1.88H96.8A3.3,3.3,0,0,1,93.559,76.039ZM101.3,76h0a.627.627,0,0,1-.8-.374l-1.129-3.1a.627.627,0,0,0-.589-.412h-3.96a.627.627,0,0,1-.627-.627V66.222a.627.627,0,0,1,1.253,0v1.5a.627.627,0,0,0,.627.627H98.99a.627.627,0,0,1,0,1.253H96.066a.627.627,0,0,0,0,1.253H99.65a.627.627,0,0,1,.585.414.611.611,0,0,0,.027.063l1.405,3.861A.627.627,0,0,1,101.3,76Z" transform="translate(-85.288 -58.452)" fill="#b9c1cc"/>
</svg>
