<svg xmlns="http://www.w3.org/2000/svg" width="21.389" height="21.389" viewBox="0 0 21.389 21.389">
  <path id="electric-car" d="M1.969,4.609h8.819a3.981,3.981,0,0,0,3.934,3.356h2.014a.627.627,0,0,0,.627-.627V6.623h3.4a.627.627,0,0,0,0-1.253h-3.4V2.6h3.4a.627.627,0,0,0,0-1.253h-3.4V.627A.627.627,0,0,0,16.735,0H14.722a3.981,3.981,0,0,0-3.934,3.356H1.969A1.968,1.968,0,0,0,0,5.325v8.726A1.968,1.968,0,0,0,1.969,16.02h.716v2.729a.627.627,0,0,0,.627.627H4.774a2.64,2.64,0,0,0,5.129,0h3.6a2.64,2.64,0,0,0,5.129,0h2.134a.627.627,0,0,0,.627-.627V17.071a3.651,3.651,0,0,0-3.647-3.647h-.076L15.28,11.038a3.29,3.29,0,0,0-2.342-.97H4.654a1.968,1.968,0,0,0-1.969,1.969v2.729H1.969a.716.716,0,0,1-.716-.716V5.325a.716.716,0,0,1,.716-.716ZM14.722,1.253h1.387V6.712H14.722a2.729,2.729,0,1,1,0-5.459ZM7.339,20.136a1.387,1.387,0,1,1,1.387-1.387A1.389,1.389,0,0,1,7.339,20.136Zm8.726,0a1.387,1.387,0,1,1,1.387-1.387A1.389,1.389,0,0,1,16.064,20.136ZM10.65,11.321h2.288a2.045,2.045,0,0,1,1.455.6l1.5,1.5H10.65Zm-6.712.716a.716.716,0,0,1,.716-.716H9.4v2.1H3.938Zm0,2.64h13.8a2.4,2.4,0,0,1,2.394,2.394v1.051H18.629a2.641,2.641,0,0,0-5.13,0H9.9a2.641,2.641,0,0,0-5.13,0H3.938Z" fill="#b9c1cc"/>
</svg>
