<svg xmlns="http://www.w3.org/2000/svg" width="10.49" height="11.643" viewBox="0 0 10.49 11.643">
  <g id="Group_58506" data-name="Group 58506" transform="translate(-548.755 1069.244) rotate(-90)">
    <path id="Fill-1" d="M5.208-15.851a.675.675,0,0,1,0-.929.612.612,0,0,1,.9,0l3.7,3.845c.322.337.577.345.907,0l3.718-3.86a.612.612,0,0,1,.9,0,.684.684,0,0,1,0,.937L10.7-11.189a.612.612,0,0,1-.9,0L5.208-15.851Z" transform="translate(1080.236 564.267) rotate(-90)" fill="#4cd964" fill-rule="evenodd"/>
    <path id="Path_34347" data-name="Path 34347" d="M14514.251,6883h9.567" transform="translate(-13456 -6329)" fill="none" stroke="#4cd964" stroke-linecap="round" stroke-width="1.3"/>
  </g>
</svg>
