<svg xmlns="http://www.w3.org/2000/svg" width="99.028" height="24.949" viewBox="0 0 99.028 24.949"><defs><style>.a{fill:#5869ff;}</style></defs><path class="a" d="M166.314,252.6H162.2a1.1,1.1,0,0,0-1.1,1.1v2.742a1.1,1.1,0,0,1-1.1,1.1h-2.468a1.1,1.1,0,0,1-1.1-1.1v-2.742a1.1,1.1,0,0,0-1.1-1.1H147.4a1.1,1.1,0,0,0-1.1,1.1V266.3a1.1,1.1,0,0,1-1.1,1.1H132.865a1.1,1.1,0,0,1-1.1-1.1h0a1.1,1.1,0,0,1,1.1-1.1h7.677a1.1,1.1,0,0,0,1.1-1.1V261.1a1.1,1.1,0,0,0-1.1-1.1h-7.677a1.1,1.1,0,0,1-1.1-1.1h0a1.1,1.1,0,0,1,1.1-1.1h2.742a1.1,1.1,0,0,0,1.1-1.1v-3.016a1.1,1.1,0,0,0-1.1-1.1H102.928a1.1,1.1,0,0,0-1.1,1.1v7.951a1.1,1.1,0,0,0,1.1,1.1h2.742a1.1,1.1,0,0,1,1.1,1.1V266.3a1.1,1.1,0,0,1-1.1,1.1h-7.4a1.1,1.1,0,0,1-1.1-1.1v-7.677a1.1,1.1,0,0,0-1.1-1.1H93.332a1.1,1.1,0,0,1-1.1-1.1v-2.467a1.1,1.1,0,0,1,1.1-1.1h2.742a1.1,1.1,0,0,0,1.1-1.1v-3.016a1.1,1.1,0,0,0-1.1-1.1H93.058a1.1,1.1,0,0,0-1.1,1.1V251.5a1.1,1.1,0,0,1-1.1,1.1H78.253a1.1,1.1,0,0,0-1.1,1.1v7.951a1.1,1.1,0,0,0,1.1,1.1h2.742a1.1,1.1,0,0,1,1.1,1.1V266.3a1.1,1.1,0,0,1-1.1,1.1H73.318a1.1,1.1,0,0,0-1.1,1.1v3.016a1.1,1.1,0,0,0,1.1,1.1H86.2a1.1,1.1,0,0,0,1.1-1.1v-7.951a1.1,1.1,0,0,0-1.1-1.1H83.462a1.1,1.1,0,0,1-1.1-1.1V258.9a1.1,1.1,0,0,1,1.1-1.1h7.4a1.1,1.1,0,0,1,1.1,1.1v12.612a1.1,1.1,0,0,0,1.1,1.1h17.821a1.1,1.1,0,0,0,1.1-1.1v-7.951a1.1,1.1,0,0,0-1.1-1.1h-2.742a1.1,1.1,0,0,1-1.1-1.1V258.9a1.1,1.1,0,0,1,1.1-1.1h7.456a1.1,1.1,0,0,1,1.1,1.1v12.612a1.1,1.1,0,0,0,1.1,1.1H120.8a1.1,1.1,0,0,0,1.1-1.1V258.9a1.1,1.1,0,0,1,1.1-1.1h2.468a1.1,1.1,0,0,1,1.1,1.1v7.677a1.1,1.1,0,0,0,1.1,1.1H130.4a1.1,1.1,0,0,1,1.1,1.1v2.742a1.1,1.1,0,0,0,1.1,1.1h12.886a1.1,1.1,0,0,0,1.1-1.1v-2.742a1.1,1.1,0,0,1,1.1-1.1h2.742a1.1,1.1,0,0,0,1.1-1.1V258.9a1.1,1.1,0,0,1,1.1-1.1h2.467a1.1,1.1,0,0,1,1.1,1.1v7.677a1.1,1.1,0,0,0,1.1,1.1h3.016a1.1,1.1,0,0,0,1.1-1.1V258.9a1.1,1.1,0,0,1,1.1-1.1h2.467a1.1,1.1,0,0,1,1.1,1.1v12.612a1.1,1.1,0,0,0,1.1,1.1h3.016a1.1,1.1,0,0,0,1.1-1.1V253.693a1.1,1.1,0,0,0-1.1-1.1Z" transform="translate(-72.221 -247.661)"/></svg>
