<svg xmlns="http://www.w3.org/2000/svg" width="43.716" height="24.027" viewBox="0 0 43.716 24.027"><defs><style>.a{fill:#fff0b2;}.b{isolation:isolate;}.c{fill:#3fc957;}</style></defs><g transform="translate(-11716 8146.84)"><path class="a" d="M571.365,1406.414H535.651a4.172,4.172,0,0,0-4-4v-16.025a4.172,4.172,0,0,0,4-4h35.714a4.172,4.172,0,0,0,4,4v16.025a4.172,4.172,0,0,0-4,4Z" transform="translate(11184.35 -9529.227)"/><g class="b" transform="translate(11727.786 -8137.714)"><path class="c" d="M752.188,1555.419a.612.612,0,0,1,.617-.617h1.674a1.92,1.92,0,0,1,2.147,1.938v.016a2,2,0,0,1-2.267,1.97h-.937v1.113a.617.617,0,1,1-1.234,0Zm2.211,2.211a.868.868,0,0,0,.977-.849v-.016c0-.552-.384-.849-1-.849h-.953v1.714Z" transform="translate(-752.188 -1554.714)"/><path class="c" d="M837.689,1558.055l1.954-4.413a.762.762,0,0,1,.721-.489h.072a.752.752,0,0,1,.713.489l1.954,4.413a.6.6,0,0,1,.064.248.585.585,0,0,1-.585.593.628.628,0,0,1-.593-.425l-.376-.881h-2.467l-.392.921a.606.606,0,0,1-.569.384.568.568,0,0,1-.569-.577A.654.654,0,0,1,837.689,1558.055Zm3.468-1.554-.777-1.85-.777,1.85Z" transform="translate(-833.052 -1553.153)"/><path class="c" d="M952.651,1558.4a.576.576,0,0,1-.232-.465.568.568,0,0,1,.577-.569.6.6,0,0,1,.352.112,2.363,2.363,0,0,0,1.434.5c.5,0,.809-.2.809-.529v-.016c0-.312-.192-.473-1.129-.713-1.129-.288-1.858-.6-1.858-1.714v-.016a1.754,1.754,0,0,1,1.962-1.69,3.254,3.254,0,0,1,1.778.5.571.571,0,0,1-.3,1.057.592.592,0,0,1-.312-.088,2.332,2.332,0,0,0-1.177-.376c-.473,0-.721.216-.721.489v.016c0,.368.24.489,1.209.737,1.137.3,1.778.7,1.778,1.682v.016c0,1.113-.849,1.738-2.058,1.738A3.618,3.618,0,0,1,952.651,1558.4Z" transform="translate(-941.718 -1553.295)"/><path class="c" d="M1047.071,1558.4a.576.576,0,0,1-.232-.465.568.568,0,0,1,.577-.569.594.594,0,0,1,.352.112,2.364,2.364,0,0,0,1.434.5c.5,0,.809-.2.809-.529v-.016c0-.312-.192-.473-1.129-.713-1.129-.288-1.858-.6-1.858-1.714v-.016a1.754,1.754,0,0,1,1.962-1.69,3.255,3.255,0,0,1,1.778.5.571.571,0,0,1-.3,1.057.591.591,0,0,1-.312-.088,2.333,2.333,0,0,0-1.177-.376c-.473,0-.721.216-.721.489v.016c0,.368.24.489,1.21.737,1.137.3,1.778.7,1.778,1.682v.016c0,1.113-.849,1.738-2.058,1.738A3.618,3.618,0,0,1,1047.071,1558.4Z" transform="translate(-1031.092 -1553.295)"/></g><g transform="translate(11721.806 -8141.034)"><path class="c" d="M669.026,1654.163H643.664a3.375,3.375,0,0,1-3.371-3.371.534.534,0,0,1,1.069,0,2.3,2.3,0,0,0,2.3,2.3h25.362a2.3,2.3,0,0,0,2.3-2.3.534.534,0,0,1,1.069,0A3.375,3.375,0,0,1,669.026,1654.163Z" transform="translate(-640.293 -1641.749)"/><path class="c" d="M671.862,1494.934a.534.534,0,0,1-.534-.534,2.3,2.3,0,0,0-2.3-2.3H643.664a2.3,2.3,0,0,0-2.3,2.3.534.534,0,0,1-1.069,0,3.375,3.375,0,0,1,3.371-3.371h25.362a3.375,3.375,0,0,1,3.371,3.371A.534.534,0,0,1,671.862,1494.934Z" transform="translate(-640.293 -1491.029)"/></g><g transform="translate(11720.656 -8136.373)"><path class="c" d="M620.487,1578.283l.432.875a.09.09,0,0,0,.068.049l.965.14a.09.09,0,0,1,.05.153l-.7.681a.09.09,0,0,0-.026.079l.165.961a.09.09,0,0,1-.13.095l-.863-.454a.09.09,0,0,0-.084,0l-.863.454a.09.09,0,0,1-.13-.095l.165-.961a.09.09,0,0,0-.026-.079l-.7-.681a.09.09,0,0,1,.05-.153l.965-.14a.09.09,0,0,0,.068-.049l.432-.875A.09.09,0,0,1,620.487,1578.283Z" transform="translate(-618.784 -1578.233)"/><path class="c" d="M1203.52,1578.283l.432.875a.09.09,0,0,0,.068.049l.965.14a.09.09,0,0,1,.05.153l-.7.681a.09.09,0,0,0-.026.079l.165.961a.09.09,0,0,1-.13.095l-.863-.454a.09.09,0,0,0-.084,0l-.863.454a.09.09,0,0,1-.13-.095l.165-.961a.09.09,0,0,0-.026-.079l-.7-.681a.09.09,0,0,1,.05-.153l.965-.14a.09.09,0,0,0,.068-.049l.432-.875A.09.09,0,0,1,1203.52,1578.283Z" transform="translate(-1170.659 -1578.233)"/></g></g></svg>