<svg id="Layer_1" data-name="Layer 1" xmlns="http://www.w3.org/2000/svg" viewBox="0 0 375 80"><title>Sistem Logoldpi</title><path d="M101.91,58c0,11.79-7.09,18.88-22.48,19.09v.07H59.88A16,16,0,0,1,58.47,70a19.57,19.57,0,0,1,1.41-6.77H79.43v.17c4.17-.41,5.92-2,5.92-4.82,0-3.91-5.7-4.92-11.86-6.93-7.16-2.24-14.88-5.82-14.88-17.12,0-11.52,7.16-18.79,22.6-18.79,12.31,0,18.13,3.46,18.13,3.46.11,4.14-1,8.73-3.92,11.53A47.49,47.49,0,0,0,83,28.92c-5.93,0-8.39,1.79-8.39,4.92,0,3.91,6.94,4.47,13.76,6.94S101.91,47.26,101.91,58Zm9.28-40.38v57.5a31.51,31.51,0,0,0,8.61.89,34.65,34.65,0,0,0,8.62-.89V17.62a34.28,34.28,0,0,0-8.62-.9C113.87,16.72,111.19,17.62,111.19,17.62ZM4.32,63.31a22.7,22.7,0,0,0-.82,7,25,25,0,0,0,.82,7H49.71a24.69,24.69,0,0,0,.83-7,21.76,21.76,0,0,0-.83-7ZM168.47,40.78c-6.83-2.47-13.76-3-13.76-6.94,0-3.13,2.46-4.92,8.39-4.92a47.37,47.37,0,0,1,12.41,1.79c2.91-2.8,4-7.39,3.92-11.53,0,0-5.82-3.46-18.12-3.46-15.44,0-22.6,7.27-22.6,18.79,0,11.3,7.72,14.88,14.88,17.12,6.15,2,11.85,3,11.85,6.93,0,3.25-2.34,4.92-8.16,4.92a49.92,49.92,0,0,1-14.88-2.57c-2.8,2.91-4.14,6.94-4.14,11.75,0,0,7.61,4.47,20.58,4.47C174.73,77.13,182,70,182,58,182,47.26,175.18,43.12,168.47,40.78Zm53.24,23.15c-5.93,0-9.06-1.79-9.06-9.51V29.48h12.08a23.16,23.16,0,0,0,.79-6.16,20.21,20.21,0,0,0-.79-6.15H212.65V4.42c-4.87-2.3-12.86-2.3-17.23,0v12.7h-8a20,20,0,0,0-.78,6.27,21,21,0,0,0,.78,6h8V54.87c0,15.55,6.16,22.26,21.26,22.26a38,38,0,0,0,10.07-1.23,17.66,17.66,0,0,0,.78-5.59,16,16,0,0,0-1.34-6.83A26.08,26.08,0,0,1,221.71,63.93Zm60.41-24.72a56,56,0,0,1-1.23,12.31H250.57C251.69,60.69,255.94,63,262.65,63a26.93,26.93,0,0,0,11.86-2.69,17.69,17.69,0,0,1,5.26,11.75s-6.71,5-19.91,5c-18.35,0-27-9.62-27-30.43,0-21.25,9.95-31,26.17-31C273.73,15.72,282.12,23.21,282.12,39.21Zm-15.44-1.9c0-5.15-1.9-9.06-7.27-9.06-4.59,0-8.06,3.24-9,12.53h16A34.52,34.52,0,0,0,266.68,37.31Zm88-21.59c-6.94,0-12.64,2.23-17.23,6.82-3.24-4.81-7.83-6.82-14.09-6.82a21.65,21.65,0,0,0-14.55,5.48V17.73a34.6,34.6,0,0,0-8.61-.89,31.55,31.55,0,0,0-8.62.89V75.12a32.55,32.55,0,0,0,8.62.89,35.7,35.7,0,0,0,8.61-.89V32.27a10.73,10.73,0,0,1,7.39-3c4.92,0,6.71,2.69,6.71,6.72V75.12a32.51,32.51,0,0,0,8.61.89,35.85,35.85,0,0,0,8.62-.89V32.39a10,10,0,0,1,7.27-3.14c5,0,6.82,2.69,6.82,6.72V75.12a32.55,32.55,0,0,0,8.62.89,35.7,35.7,0,0,0,8.61-.89V32.72C371.5,22.54,365.68,15.72,354.72,15.72Z" style="fill:#ff3b30"/></svg>