<svg id="Layer_1" data-name="Layer 1" xmlns="http://www.w3.org/2000/svg" viewBox="0 0 64 64"><title>activityldpi</title><path d="M57.51,31.15a1.15,1.15,0,0,1-1.15,1.15H44.86a1.13,1.13,0,0,1-1.07-.74l-.87-2.24L36.25,45.39a1.14,1.14,0,0,1-1.06.7h0a1.15,1.15,0,0,1-1.06-.74L25.48,22.76l-5,9a1.14,1.14,0,0,1-1,.59h-12a1.15,1.15,0,0,1,0-2.3h11.3l5.86-10.51a1.15,1.15,0,0,1,2.08.15l8.48,22.2,6.66-16.05a1.15,1.15,0,0,1,2.14,0L45.65,30H56.36A1.14,1.14,0,0,1,57.51,31.15ZM14.15,14.08H50V25.46h2.3V12.93a1.14,1.14,0,0,0-1.15-1.15H13a1.15,1.15,0,0,0-1.15,1.15V25.46h2.3ZM50,49.92H14.15V37.33h-2.3V51.08A1.16,1.16,0,0,0,13,52.23H51.15a1.15,1.15,0,0,0,1.15-1.15V37.33H50Z" style="fill:#231f20"/></svg>