<svg id="Layer_1" data-name="Layer 1" xmlns="http://www.w3.org/2000/svg" viewBox="0 0 64 64"><title>attachementsldpi</title><path stroke="black" stroke-width="1" d="M53.21,21.72a11.17,11.17,0,0,1-3.28,7.93L30.77,48.8a.91.91,0,0,1-1.31,0,.93.93,0,0,1,0-1.31L48.61,28.33A9.35,9.35,0,1,0,35.39,15.11l-22,22a6.65,6.65,0,0,0,9.4,9.4L44.65,24.65a4.17,4.17,0,1,0-5.9-5.9L19.59,37.9a.93.93,0,1,1-1.31-1.31L37.44,17.43A6,6,0,1,1,46,26L24.1,47.82a8.5,8.5,0,0,1-12-12l22-22a11.21,11.21,0,0,1,19.13,7.92Z" style="fill:#231f20"/></svg>