<svg id="Layer_1" data-name="Layer 1" xmlns="http://www.w3.org/2000/svg" viewBox="0 0 64 64"><title>attendanceldpi</title><path d="M20.8,22.7V12.31a1.16,1.16,0,0,1,2.31,0V22.7a1.16,1.16,0,0,1-2.31,0Zm22.69,1.15a1.15,1.15,0,0,0,1.15-1.15V12.31a1.15,1.15,0,1,0-2.3,0V22.7A1.16,1.16,0,0,0,43.49,23.85ZM25.55,18.57H39.9a1.15,1.15,0,0,0,0-2.3H25.55a1.15,1.15,0,0,0,0,2.3Zm24.62-2.3H47.09a1.15,1.15,0,1,0,0,2.3h3.08A3.13,3.13,0,0,1,53.3,21.7V47.41a3.13,3.13,0,0,1-3.13,3.12H15a3.13,3.13,0,0,1-3.13-3.12V21.7A3.13,3.13,0,0,1,15,18.57h3.38a1.15,1.15,0,1,0,0-2.3H15A5.44,5.44,0,0,0,9.55,21.7V47.41A5.44,5.44,0,0,0,15,52.84H50.17a5.44,5.44,0,0,0,5.43-5.43V21.7A5.44,5.44,0,0,0,50.17,16.27ZM31.57,26.58v7.78H22.14a1.15,1.15,0,1,0,0,2.3H32.73a1.16,1.16,0,0,0,1.14-1.16V26.58a1.15,1.15,0,0,0-2.3,0Z"/></svg>