<svg id="Layer_1" data-name="Layer 1" xmlns="http://www.w3.org/2000/svg" viewBox="0 0 64 64"><title>calenderldpi</title><path d="M39.74,27.33H36.82a.87.87,0,0,0-.86.86v2.92a.86.86,0,0,0,.86.85h2.92a.85.85,0,0,0,.85-.85V28.19A.86.86,0,0,0,39.74,27.33Zm-2.07,2.93V29h1.21v1.22Z" style="fill:#231f20"/><path d="M39.74,33H36.82a.86.86,0,0,0-.86.85v2.92a.87.87,0,0,0,.86.86h2.92a.86.86,0,0,0,.85-.86V33.84A.85.85,0,0,0,39.74,33Zm-2.07,2.92V34.69h1.21v1.22Z" style="fill:#231f20"/><path d="M46,33H43.09a.85.85,0,0,0-.85.85v2.92a.86.86,0,0,0,.85.86H46a.87.87,0,0,0,.86-.86V33.84A.86.86,0,0,0,46,33ZM44,35.91V34.69h1.21v1.22Z" style="fill:#231f20"/><path d="M48.89,13.56h-5V12.15a.86.86,0,1,0-1.71,0v1.41H38.37V12.15a.86.86,0,1,0-1.71,0v1.41H32.85V12.15a.85.85,0,1,0-1.7,0v1.41H27.34V12.15a.86.86,0,1,0-1.71,0v1.41H21.82V12.15a.86.86,0,1,0-1.71,0v1.41h-5A3.41,3.41,0,0,0,11.7,17V48a3.41,3.41,0,0,0,3.41,3.41H48.89A3.41,3.41,0,0,0,52.3,48V17A3.41,3.41,0,0,0,48.89,13.56Zm0,36.1H15.11a1.7,1.7,0,0,1-1.7-1.7V21.43H50.59V48A1.7,1.7,0,0,1,48.89,49.66ZM15.11,15.27h5v.86A.86.86,0,0,0,21,17a.85.85,0,0,0,.85-.85v-.86h3.81v.86a.85.85,0,0,0,.85.85.86.86,0,0,0,.86-.85v-.86h3.81v.86a.85.85,0,0,0,1.7,0v-.86h3.81v.86a.86.86,0,0,0,.86.85.85.85,0,0,0,.85-.85v-.86h3.81v.86A.85.85,0,0,0,43,17a.86.86,0,0,0,.86-.85v-.86h5a1.7,1.7,0,0,1,1.7,1.7v2.76H13.41V17A1.7,1.7,0,0,1,15.11,15.27Z" style="fill:#231f20"/><path d="M46,27.33H43.09a.86.86,0,0,0-.85.86v2.92a.85.85,0,0,0,.85.85H46a.86.86,0,0,0,.86-.85V28.19A.87.87,0,0,0,46,27.33ZM44,30.26V29h1.21v1.22Z" style="fill:#231f20"/><path d="M27.18,38.64H24.26a.85.85,0,0,0-.85.85v2.92a.86.86,0,0,0,.85.86h2.92a.87.87,0,0,0,.86-.86V39.49A.86.86,0,0,0,27.18,38.64Zm-2.06,2.92V40.35h1.21v1.21Z" style="fill:#231f20"/><path d="M27.18,27.33H24.26a.86.86,0,0,0-.85.86v2.92a.85.85,0,0,0,.85.85h2.92a.86.86,0,0,0,.86-.85V28.19A.87.87,0,0,0,27.18,27.33Zm-2.06,2.93V29h1.21v1.22Z" style="fill:#231f20"/><path d="M33.46,38.64H30.54a.85.85,0,0,0-.85.85v2.92a.86.86,0,0,0,.85.86h2.92a.86.86,0,0,0,.85-.86V39.49A.85.85,0,0,0,33.46,38.64Zm-2.07,2.92V40.35h1.22v1.21Z" style="fill:#231f20"/><path d="M27.18,33H24.26a.85.85,0,0,0-.85.85v2.92a.86.86,0,0,0,.85.86h2.92a.87.87,0,0,0,.86-.86V33.84A.86.86,0,0,0,27.18,33Zm-2.06,2.92V34.69h1.21v1.22Z" style="fill:#231f20"/><path d="M20.91,38.64H18a.86.86,0,0,0-.86.85v2.92a.87.87,0,0,0,.86.86h2.92a.86.86,0,0,0,.85-.86V39.49A.85.85,0,0,0,20.91,38.64Zm-2.07,2.92V40.35h1.21v1.21Z" style="fill:#231f20"/><path d="M33.46,27.33H30.54a.86.86,0,0,0-.85.86v2.92a.85.85,0,0,0,.85.85h2.92a.85.85,0,0,0,.85-.85V28.19A.86.86,0,0,0,33.46,27.33Zm-2.07,2.93V29h1.22v1.22Z" style="fill:#231f20"/><path d="M20.91,33H18a.86.86,0,0,0-.86.85v2.92a.87.87,0,0,0,.86.86h2.92a.86.86,0,0,0,.85-.86V33.84A.85.85,0,0,0,20.91,33Zm-2.07,2.92V34.69h1.21v1.22Z" style="fill:#231f20"/><path d="M33.46,33H30.54a.85.85,0,0,0-.85.85v2.92a.86.86,0,0,0,.85.86h2.92a.86.86,0,0,0,.85-.86V33.84A.85.85,0,0,0,33.46,33Zm-2.07,2.92V34.69h1.22v1.22Z" style="fill:#231f20"/></svg>