<svg id="Layer_1" data-name="Layer 1" xmlns="http://www.w3.org/2000/svg" viewBox="0 0 64 64"><title>call_1ldpi</title><path d="M53.28,44.33a3.42,3.42,0,0,0-1.7-2.54L41.37,35.91a3.47,3.47,0,0,0-4.17.55l-2,2a1.22,1.22,0,0,1-1.64.09,57.63,57.63,0,0,1-4.62-4.16,56,56,0,0,1-4.16-4.62,1.24,1.24,0,0,1,.09-1.64l2-2A3.46,3.46,0,0,0,27.43,22L21.54,11.75A3.41,3.41,0,0,0,19,10.05a3.46,3.46,0,0,0-2.9,1l-3,3c-2.19,2.19-2.25,6.16-.15,11.17A48.23,48.23,0,0,0,23.37,40,48.27,48.27,0,0,0,38.09,50.4a17.3,17.3,0,0,0,6.51,1.54,6.37,6.37,0,0,0,4.67-1.68l3-3A3.38,3.38,0,0,0,53.28,44.33ZM17.79,12.06a1.56,1.56,0,0,1,1-.18,1.58,1.58,0,0,1,1.19.79l5.88,10.22a1.6,1.6,0,0,1-.26,1.94l-.27.27Zm5.55,18.88a59.38,59.38,0,0,0,4.29,4.77A61.56,61.56,0,0,0,32.4,40a3.07,3.07,0,0,0,4.09-.23l.35-.34L50,46.94l-2,2c-1.61,1.61-4.95,1.52-9.17-.24a46.82,46.82,0,0,1-14.13-10,46.56,46.56,0,0,1-10-14.14c-1.76-4.22-1.85-7.56-.25-9.16l2-2L24,26.45l-.39.39A3.07,3.07,0,0,0,23.34,30.94ZM51.46,44.57a1.65,1.65,0,0,1-.18,1L38.19,38.08l.32-.32a1.62,1.62,0,0,1,1.94-.26l10.21,5.89A1.6,1.6,0,0,1,51.46,44.57Z"/></svg>