<svg id="Layer_1" data-name="Layer 1" xmlns="http://www.w3.org/2000/svg" viewBox="0 0 64 64"><title>callldpi</title><path d="M26,16.08v0a.82.82,0,0,1,1.64,0,.83.83,0,0,1-.82.84A.8.8,0,0,1,26,16.08ZM24.42,48.39h4.82a.82.82,0,0,0,0-1.64H24.42a.82.82,0,0,0,0,1.64ZM38.26,15.16V48.84a2.79,2.79,0,0,1-2.78,2.78H18.19a2.78,2.78,0,0,1-2.78-2.78V15.16a2.78,2.78,0,0,1,2.78-2.78H35.48A2.79,2.79,0,0,1,38.26,15.16ZM17.05,48.84A1.14,1.14,0,0,0,18.19,50H35.48a1.14,1.14,0,0,0,1.14-1.14v-3.7H17.05Zm0-29.2V43.5H36.62V19.64Zm0-4.48V18H36.62V15.16A1.14,1.14,0,0,0,35.48,14H18.19A1.14,1.14,0,0,0,17.05,15.16Zm24.06,2.38a.82.82,0,0,0,0,1.64A6.83,6.83,0,0,1,47.93,26a.82.82,0,0,0,1.64,0A8.48,8.48,0,0,0,41.11,17.54Zm0-4.69a.82.82,0,0,0,0,1.64A11.52,11.52,0,0,1,52.62,26a.82.82,0,0,0,1.64,0A13.17,13.17,0,0,0,41.11,12.85Zm0,9a.82.82,0,0,0,0,1.64,2.51,2.51,0,0,1,2.5,2.5.82.82,0,0,0,1.63,0A4.13,4.13,0,0,0,41.11,21.87Z" style="fill:#231f20"/></svg>