<svg id="Layer_1" data-name="Layer 1" xmlns="http://www.w3.org/2000/svg" viewBox="0 0 64 64"><title>cameraldpi</title><path d="M19.49,20.42a2,2,0,1,0,2.05,2A2,2,0,0,0,19.49,20.42Zm0,1.91a.14.14,0,0,1,.14.14c0,.15-.28.15-.28,0A.14.14,0,0,1,19.49,22.33ZM32,26a6.28,6.28,0,1,0,6.28,6.28A6.29,6.29,0,0,0,32,26Zm0,10.66a4.38,4.38,0,1,1,4.38-4.38A4.39,4.39,0,0,1,32,36.62ZM51.65,16.93H42.12a.52.52,0,0,1-.48-.3l-1-2.12a3,3,0,0,0-2.75-1.75H26.1a3,3,0,0,0-2.75,1.75l-1,2.12a.52.52,0,0,1-.48.3H12.35a3,3,0,0,0-3,3V44.25a3,3,0,0,0,3,3h39.3a3,3,0,0,0,3-3V19.92A3,3,0,0,0,51.65,16.93ZM25.07,15.31a1.15,1.15,0,0,1,1-.65H37.9a1.15,1.15,0,0,1,1,.65l1,2.12a2.46,2.46,0,0,0,2.21,1.41h9.53a1.08,1.08,0,0,1,1.08,1.08v6h-12a10.69,10.69,0,0,0-17.36,0h-12v-6a1.08,1.08,0,0,1,1.08-1.08h9.53a2.46,2.46,0,0,0,2.21-1.41ZM42.73,32.24a10.81,10.81,0,0,0-.94-4.38H52.73v8.76H41.79A10.81,10.81,0,0,0,42.73,32.24Zm-21.46,0a10.81,10.81,0,0,0,.94,4.38H11.27V27.86H22.21A10.81,10.81,0,0,0,21.27,32.24ZM32,41.06a8.82,8.82,0,1,1,8.82-8.82A8.83,8.83,0,0,1,32,41.06ZM11.27,38.52H23.32a10.69,10.69,0,0,0,17.36,0h12v5.73a1.08,1.08,0,0,1-1.08,1.09H12.35a1.08,1.08,0,0,1-1.08-1.09Z" style="fill:#231f20"/></svg>