<svg id="Layer_1" data-name="Layer 1" xmlns="http://www.w3.org/2000/svg" viewBox="0 0 64 64"><title>cloneldpi</title><path d="M53.43,36.35H37.52a16,16,0,0,1,1.67-15.16c.16-.25.34-.5.59-.82a9.21,9.21,0,1,0-17-4.93,9,9,0,0,0,1.51,5,2,2,0,0,0,.12.19,3.92,3.92,0,0,1,.32.44,15.89,15.89,0,0,1,1.72,15.24H10.57a1,1,0,0,0-1,1v7.95a1,1,0,0,0,1,1h1.58v2.09a1,1,0,0,0,1,.95H50.89a1,1,0,0,0,1-.95V46.22h1.58a1,1,0,0,0,1-1V37.31A1,1,0,0,0,53.43,36.35Zm-39.37,11V46.22H49.94v1.13Zm38.42-9.09v6.05h-41V38.26ZM32,8.14a7.32,7.32,0,0,1,7.3,7.3,7.18,7.18,0,0,1-1.07,3.82c-.23.29-.45.59-.65.89l0,.08a18,18,0,0,0-2.07,16.12H28.52a17.86,17.86,0,0,0-2.18-16.28,6.8,6.8,0,0,0-.43-.6A7.3,7.3,0,0,1,32,8.14Z" style="fill:#231f20"/></svg>