<svg id="Layer_1" data-name="Layer 1" xmlns="http://www.w3.org/2000/svg" viewBox="0 0 64 64"><title>clone_1ldpi</title><path d="M32,38.09a.8.8,0,0,1-.8.79H19.47a.8.8,0,0,1,0-1.59H31.16A.8.8,0,0,1,32,38.09Zm-.8,4.13H19.47a.8.8,0,0,0,0,1.59H31.16a.8.8,0,1,0,0-1.59Zm0-9.86H19.47a.8.8,0,0,0,0,1.59H31.16a.8.8,0,1,0,0-1.59ZM50.84,14V37.88a.79.79,0,0,1-.79.79H44.76V44a.79.79,0,0,1-.79.8H38.68v5.29a.8.8,0,0,1-.79.8H14a.79.79,0,0,1-.79-.8V26.12a.79.79,0,0,1,.79-.79h5.29V20a.79.79,0,0,1,.79-.8h5.29V14a.8.8,0,0,1,.79-.8H50.05A.79.79,0,0,1,50.84,14ZM37.09,49.26V26.91H14.74V49.26Zm1.59-23.14V43.17h4.5V20.83H20.82v4.5H37.89A.79.79,0,0,1,38.68,26.12ZM44.76,20V37.09h4.5V14.74H26.91v4.5H44A.79.79,0,0,1,44.76,20Z" style="fill:#231f20"/></svg>