<svg id="Layer_1" data-name="Layer 1" xmlns="http://www.w3.org/2000/svg" viewBox="0 0 64 64"><title>companyldpi</title><path d="M29.82,29.52H26a.91.91,0,0,0-.91.91v3.86a.92.92,0,0,0,.91.92h3.86a.92.92,0,0,0,.92-.92V30.43A.92.92,0,0,0,29.82,29.52Zm-2.95,3.86v-2h2v2ZM45.05,15.45a.92.92,0,0,0,.92-.91V11.18a.92.92,0,0,0-.92-.92H19a.92.92,0,0,0-.92.92v3.36a.92.92,0,0,0,.92.91h1.16v10.2H19a.92.92,0,1,0,0,1.83h1.16v9.77H19a.91.91,0,1,0,0,1.82h1.16v14A.92.92,0,0,0,21,54H43a.92.92,0,0,0,.91-.92v-14h1.16a.91.91,0,1,0,0-1.82H43.89V27.48h1.16a.92.92,0,1,0,0-1.83H43.89V15.45ZM28.29,52.2V43.51h2.8V52.2Zm4.62,0V43.51h2.8V52.2Zm-11-26.55V15.45H42.06v10.2Zm0,11.6V27.48H42.06v9.77Zm4.52,5.34V52.2H21.94V39.07H42.06V52.2H37.54V42.59a.91.91,0,0,0-.91-.91H27.37A.91.91,0,0,0,26.46,42.59Zm17.68-30.5v1.53H19.86V12.09ZM38,29.52H34.18a.92.92,0,0,0-.92.91v3.86a.92.92,0,0,0,.92.92H38a.92.92,0,0,0,.91-.92V30.43A.91.91,0,0,0,38,29.52Zm-2.95,3.86v-2h2v2ZM29.82,17.71H26a.92.92,0,0,0-.91.92v3.86a.91.91,0,0,0,.91.91h3.86a.92.92,0,0,0,.92-.91V18.63A.92.92,0,0,0,29.82,17.71Zm-2.95,3.87v-2h2v2ZM38,17.71H34.18a.92.92,0,0,0-.92.92v3.86a.92.92,0,0,0,.92.91H38a.91.91,0,0,0,.91-.91V18.63A.92.92,0,0,0,38,17.71Zm-2.95,3.87v-2h2v2Z" style="fill:#231f20"/></svg>