<svg id="Layer_1" data-name="Layer 1" xmlns="http://www.w3.org/2000/svg" viewBox="0 0 64 64"><title>contactldpi</title><path stroke="black" stroke-width="1" d="M34.69,31.14a3.41,3.41,0,1,0-3.41-3.41A3.41,3.41,0,0,0,34.69,31.14Zm0-5.14A1.73,1.73,0,1,1,33,27.73,1.73,1.73,0,0,1,34.69,26ZM43.6,11.91H17.47a.84.84,0,0,0-.84.84v5.17H15.1a.84.84,0,1,0,0,1.68h1.53v4.88H15.1a.84.84,0,0,0,0,1.68h1.53v4.89H15.1a.84.84,0,1,0,0,1.67h1.53v4.89H15.1a.84.84,0,1,0,0,1.67h1.53v4.89H15.1a.84.84,0,0,0,0,1.68h1.53v4.87a.85.85,0,0,0,.84.84H43.6a4,4,0,0,0,3.95-4V15.86A4,4,0,0,0,43.6,11.91Zm0,38H24.86V13.59H43.6a2.26,2.26,0,0,1,2.27,2.27V47.61A2.27,2.27,0,0,1,43.6,49.88ZM20.68,45a.84.84,0,0,0-.84-.84H18.31V39.28h1.53a.84.84,0,1,0,0-1.67H18.31V32.72h1.53a.84.84,0,1,0,0-1.67H18.31V26.16h1.53a.84.84,0,0,0,0-1.68H18.31V19.6h1.53a.84.84,0,0,0,0-1.68H18.31V13.59h4.88V49.88H18.31v-4h1.53A.85.85,0,0,0,20.68,45Zm20.54-9.38v2.68a.84.84,0,0,1-1.68,0V35.63a2.31,2.31,0,0,0-2.31-2.32H32.14a2.31,2.31,0,0,0-2.31,2.32v2.68a.84.84,0,1,1-1.68,0V35.63a4,4,0,0,1,4-4h5.09A4,4,0,0,1,41.22,35.63Z" style="fill:#231f20"/></svg>