<svg id="Layer_1" data-name="Layer 1" xmlns="http://www.w3.org/2000/svg" viewBox="0 0 64 64"><title>dashboardldpi</title><path d="M49.35,8.84H14.41A6.32,6.32,0,0,0,8.1,15.15v9.14a6.32,6.32,0,0,0,6.31,6.31H49.35a6.32,6.32,0,0,0,6.31-6.31V15.15A6.32,6.32,0,0,0,49.35,8.84Zm3.71,15.45A3.72,3.72,0,0,1,49.35,28H14.41a3.72,3.72,0,0,1-3.71-3.71V15.15a3.72,3.72,0,0,1,3.71-3.71H49.35a3.71,3.71,0,0,1,3.71,3.71ZM49.35,33H14.41A6.32,6.32,0,0,0,8.1,39.35v.86a6.32,6.32,0,0,0,6.31,6.31H49.35a6.32,6.32,0,0,0,6.31-6.31v-.86A6.32,6.32,0,0,0,49.35,33Zm3.71,7.17a3.72,3.72,0,0,1-3.71,3.71H14.41a3.72,3.72,0,0,1-3.71-3.71v-.86a3.72,3.72,0,0,1,3.71-3.71H49.35a3.71,3.71,0,0,1,3.71,3.71Zm2.38,13.53a1.3,1.3,0,0,1-.92,1.59,1.4,1.4,0,0,1-.34.05,1.3,1.3,0,0,1-1.25-1,3.69,3.69,0,0,0-3.58-2.71H14.41a3.67,3.67,0,0,0-3.57,2.71,1.3,1.3,0,0,1-2.52-.67,6.29,6.29,0,0,1,6.09-4.64H49.35A6.28,6.28,0,0,1,55.44,53.74Z"/></svg>