<svg id="Layer_1" data-name="Layer 1" xmlns="http://www.w3.org/2000/svg" viewBox="0 0 64 64"><title>demoldpi</title><path d="M51,39.6H49.62V11.54a1.15,1.15,0,0,0-1.15-1.15h-16V7.69a1.16,1.16,0,0,0-2.31,0v2.7H14.31a1.14,1.14,0,0,0-1.15,1.15V34.73s0,.07,0,.1,0,.07,0,.11V39.6H11.48a1.15,1.15,0,0,0,0,2.3H30.19v5.89l-7.36,7.36a1.15,1.15,0,0,0,0,1.63,1.14,1.14,0,0,0,1.62,0L30.19,51v4.07a1.16,1.16,0,0,0,2.31,0v-3.9L38.24,57a1.13,1.13,0,0,0,1.62,0,1.14,1.14,0,0,0,0-1.62L32.5,48V41.9H51a1.15,1.15,0,0,0,0-2.3ZM15.46,36H47.32v3.6H15.46ZM31.22,12.69l.12,0,.13,0H47.32v21H15.46v-21Zm-5,7.07a1.14,1.14,0,0,1,1.15-1.15H39.65a1.15,1.15,0,0,1,0,2.3H27.41A1.15,1.15,0,0,1,26.26,19.76Zm0,4.7a1.14,1.14,0,0,1,1.15-1.15H39.65a1.15,1.15,0,0,1,0,2.3H27.41A1.15,1.15,0,0,1,26.26,24.46Zm0,4.64A1.14,1.14,0,0,1,27.41,28H39.65a1.15,1.15,0,0,1,0,2.3H27.41A1.15,1.15,0,0,1,26.26,29.1Zm-3.61-9.34a1.15,1.15,0,0,1,1.15-1.15H24a1.15,1.15,0,1,1,0,2.3H23.8A1.16,1.16,0,0,1,22.65,19.76Zm0,4.7a1.15,1.15,0,0,1,1.15-1.15H24a1.15,1.15,0,1,1,0,2.3H23.8A1.16,1.16,0,0,1,22.65,24.46Zm0,4.64A1.15,1.15,0,0,1,23.8,28H24a1.15,1.15,0,0,1,0,2.3H23.8A1.16,1.16,0,0,1,22.65,29.1Z" style="fill:#231f20"/></svg>