<svg id="Layer_1" data-name="Layer 1" xmlns="http://www.w3.org/2000/svg" viewBox="0 0 64 64"><title>detailsldpi</title><path d="M22.11,31.69H20.63a3,3,0,1,0-1.18,0H18a3.48,3.48,0,0,0-3.47,3.47v2.19a.91.91,0,0,0,1.82,0V35.16A1.65,1.65,0,0,1,18,33.52h4.14a1.65,1.65,0,0,1,1.65,1.64v2.19a.92.92,0,0,0,1.83,0V35.16A3.48,3.48,0,0,0,22.11,31.69ZM20,29.92a1.18,1.18,0,1,1,1.18-1.18A1.17,1.17,0,0,1,20,29.92Zm8.64-5.51a.91.91,0,0,1,.91-.91H48.93a.92.92,0,0,1,0,1.83H29.59A.92.92,0,0,1,28.68,24.41ZM52.8,17.83H11.2a.92.92,0,0,0-.92.91V45.26a.92.92,0,0,0,.92.91H46.37a.9.9,0,0,0,.64-.26l6.44-6.44a.9.9,0,0,0,.23-.4s0-.08,0-.08l0-20.25A.92.92,0,0,0,52.8,17.83ZM45.46,38.67H29.59a.92.92,0,0,0,0,1.83H45.44v3.85H12.11V19.65H51.89V37.91H46.36A.91.91,0,0,0,45.46,38.67Zm5.14,1.07-3.33,3.32V39.74Zm-1.67-4.3H29.59a.91.91,0,1,1,0-1.82H48.93a.91.91,0,1,1,0,1.82Zm-20.25-6a.91.91,0,0,1,.91-.91H48.93a.91.91,0,1,1,0,1.82H29.59A.91.91,0,0,1,28.68,29.47Z" style="fill:#231f20"/></svg>