<svg id="Layer_1" data-name="Layer 1" xmlns="http://www.w3.org/2000/svg" viewBox="0 0 64 64"><title>details_1ldpi</title><path d="M19.61,37.81a.91.91,0,0,0,1.28,0,.9.9,0,0,0,0-1.28A15.77,15.77,0,0,1,18.11,33h4.16a23.63,23.63,0,0,0,4,6.9,17,17,0,0,1-2.54-1.23l-.13-.08a.9.9,0,1,0-.95,1.54l.15.09A17.71,17.71,0,0,0,44.37,12.48a17.71,17.71,0,0,0-28.75,19.6A17.82,17.82,0,0,0,19.61,37.81Zm2.56-18.9a22.54,22.54,0,0,0-.75,11c.08.43.18.86.29,1.28H17.2a16.07,16.07,0,0,1,0-12.33h5A.19.19,0,0,0,22.17,18.91ZM31,18.84V31.17H23.59c-.16-.53-.28-1.07-.39-1.6a20.86,20.86,0,0,1,.69-10.09c.06-.22.13-.43.21-.64ZM18.1,17a16.14,16.14,0,0,1,8.5-7,33.7,33.7,0,0,0-3.78,7ZM31,33v7.9c-.51,0-1-.09-1.53-.16A23.47,23.47,0,0,1,24.2,33ZM24.78,17a30.71,30.71,0,0,1,4.65-7.74c.5-.07,1-.13,1.52-.15V17Zm8,14.15V18.84h6.85a20.44,20.44,0,0,1,.51,12.33ZM45.6,33a16.16,16.16,0,0,1-8.14,6.91,23.52,23.52,0,0,0,4-6.91ZM41.52,18.84h5a15.95,15.95,0,0,1,0,12.33H42a20.75,20.75,0,0,0,.61-3.93A23.72,23.72,0,0,0,41.52,18.84Zm-2.59-4Zm2,2.2c-.27-.7-.58-1.42-.92-2.13a.86.86,0,0,0-.51-.46.91.91,0,0,0-.69,0,.9.9,0,0,0-.43,1.21q.31.68.6,1.35H32.76V9.13a15.14,15.14,0,0,1,1.51.15,28.41,28.41,0,0,1,2.35,3.27.93.93,0,0,0,1.25.3.92.92,0,0,0,.29-1.25c-.38-.62-.75-1.16-1.07-1.62a16.11,16.11,0,0,1,8.51,7ZM39.51,33a23.51,23.51,0,0,1-5.23,7.74c-.5.07-1,.13-1.52.16V33ZM50.15,46.13a1,1,0,0,1-1,1H15.57a1,1,0,0,1,0-2H49.15A1,1,0,0,1,50.15,46.13Zm-3.78,6.2a1,1,0,0,1-1,1H37a1,1,0,1,1,0-2h8.35A1,1,0,0,1,46.37,52.33Zm-11,0a1,1,0,0,1-1,1H19.26a1,1,0,0,1,0-2H34.33A1,1,0,0,1,35.33,52.33Z"/></svg>