<svg id="Layer_1" data-name="Layer 1" xmlns="http://www.w3.org/2000/svg" viewBox="0 0 64 64"><title>downlaodldpi</title><path d="M56.9,32.87a9.55,9.55,0,0,1-9.54,9.54H36.45a1.15,1.15,0,0,1,0-2.3H47.36a7.23,7.23,0,0,0,1.12-14.38,1.14,1.14,0,0,1-1-1.25c0-.41.06-.82.06-1.2a11.28,11.28,0,0,0-21.46-4.89,1.16,1.16,0,0,1-.81.62,1.14,1.14,0,0,1-1-.26,5.5,5.5,0,0,0-9.16,4.12,5.35,5.35,0,0,0,.23,1.58,1.15,1.15,0,0,1-.81,1.44,7.23,7.23,0,0,0,1.86,14.22h11a1.15,1.15,0,1,1,0,2.3h-11A9.53,9.53,0,0,1,12.93,24a7.3,7.3,0,0,1-.09-1.14,7.8,7.8,0,0,1,11.85-6.69,13.59,13.59,0,0,1,25.18,7.1v.4A9.47,9.47,0,0,1,56.9,32.87ZM37.62,44.75l-4.47,4.18V32.65a1.15,1.15,0,0,0-2.3,0V49l-4.76-4.28a1.15,1.15,0,0,0-1.54,1.71l6.68,6a1.15,1.15,0,0,0,.77.3,1.19,1.19,0,0,0,.79-.31l6.4-6a1.15,1.15,0,0,0,.05-1.63A1.14,1.14,0,0,0,37.62,44.75Z" style="fill:#231f20"/></svg>