<svg xmlns="http://www.w3.org/2000/svg" width="10" height="16" viewBox="0 0 10 16">
  <g id="Group_58758" data-name="Group 58758" transform="translate(-976 -184)">
    <path id="Icon" d="M-147-97a2.006,2.006,0,0,0,2-2,2.006,2.006,0,0,0-2-2,2.006,2.006,0,0,0-2,2A2.006,2.006,0,0,0-147-97Zm6,0a2.006,2.006,0,0,0,2-2,2.006,2.006,0,0,0-2-2,2.006,2.006,0,0,0-2,2A2.006,2.006,0,0,0-141-97Zm6,0a2.006,2.006,0,0,0,2-2,2.006,2.006,0,0,0-2-2,2.006,2.006,0,0,0-2,2A2.006,2.006,0,0,0-135-97Z" transform="translate(885 333) rotate(90)" fill="#edf1f5"/>
    <path id="Icon-2" data-name="Icon" d="M-147-97a2.006,2.006,0,0,0,2-2,2.006,2.006,0,0,0-2-2,2.006,2.006,0,0,0-2,2A2.006,2.006,0,0,0-147-97Zm6,0a2.006,2.006,0,0,0,2-2,2.006,2.006,0,0,0-2-2,2.006,2.006,0,0,0-2,2A2.006,2.006,0,0,0-141-97Zm6,0a2.006,2.006,0,0,0,2-2,2.006,2.006,0,0,0-2-2,2.006,2.006,0,0,0-2,2A2.006,2.006,0,0,0-135-97Z" transform="translate(879 333) rotate(90)" fill="#edf1f5"/>
  </g>
</svg>
