<svg id="Layer_1" data-name="Layer 1" xmlns="http://www.w3.org/2000/svg" viewBox="0 0 64 64"><title>editldpi</title><path d="M50.79,16.31,49,14.65a3,3,0,0,0-4.21.19l-5.38,5.82a.87.87,0,0,0-.28-.05H14.36a.85.85,0,0,0-.84.85V51.24a.85.85,0,0,0,.84.85H44.15a.85.85,0,0,0,.84-.85V27l6-6.48A3,3,0,0,0,50.79,16.31ZM28.31,32.63a.82.82,0,0,0-.2.35l-2,7.18a.84.84,0,0,0,.24.85.87.87,0,0,0,.87.17l7-2.65a.87.87,0,0,0,.32-.22l8.78-9.48V50.4H15.21V22.3H37.86Zm15.42-6.74a.85.85,0,0,0-.33.35L33.43,37,28.2,39l1.48-5.39L46,16a1.31,1.31,0,0,1,1.84-.08l1.82,1.65a1.3,1.3,0,0,1,.09,1.83Z" style="fill:#231f20"/></svg>