<svg id="Layer_1" data-name="Layer 1" xmlns="http://www.w3.org/2000/svg" viewBox="0 0 64 64"><title>emailldpi</title><path d="M51.87,28.35a1.11,1.11,0,0,0-.48-1l-4.17-2.84-.07,0v-12a.85.85,0,0,0-.84-.84H17.69a.85.85,0,0,0-.84.84V24.32a.8.8,0,0,0-.43.17l-3.84,2.84a1.1,1.1,0,0,0-.45,1V46.44a3.62,3.62,0,0,0,0,.43.81.81,0,0,0,.08.66l.09.11a3.94,3.94,0,0,0,3.73,2.73H47.93a3.94,3.94,0,0,0,3.73-2.73.63.63,0,0,0,.1-.12.82.82,0,0,0,.07-.65,3,3,0,0,0,0-.43Zm-37.58-.2,2.56-1.9v3.4Zm32.86,1.5v-3.2l2.52,1.72ZM36.62,37.73l13.57-7.92V45.64Zm11.31,11H16.07a2.22,2.22,0,0,1-2-1.25l15-8.74,2.53,1.47a.84.84,0,0,0,.84,0L35,38.7l15,8.74A2.22,2.22,0,0,1,47.93,48.69ZM45.48,30.62,32,38.48,18.52,30.62a.57.57,0,0,0,0-.13V13.31H45.47V30.49A.57.57,0,0,0,45.48,30.62Zm-31.67,15V29.81l13.57,7.92ZM43.1,22a.85.85,0,0,1-.84.84H22.12a.84.84,0,0,1,0-1.68H42.26A.85.85,0,0,1,43.1,22Zm0,9.15a.84.84,0,0,1-.84.83H22.12a.84.84,0,1,1,0-1.67H42.26A.84.84,0,0,1,43.1,31.1Zm0-13.73a.84.84,0,0,1-.84.84H22.12a.84.84,0,1,1,0-1.67H42.26A.84.84,0,0,1,43.1,17.37Zm0,9.15a.85.85,0,0,1-.84.84H22.12a.84.84,0,0,1,0-1.68H42.26A.85.85,0,0,1,43.1,26.52Z" style="fill:#231f20"/></svg>