<svg id="Layer_1" data-name="Layer 1" xmlns="http://www.w3.org/2000/svg" viewBox="0 0 64 64"><title>error alertldpi</title><path d="M32,5.78A26.22,26.22,0,1,0,58.22,32,26.25,26.25,0,0,0,32,5.78Zm0,50.14A23.92,23.92,0,1,1,55.92,32,23.95,23.95,0,0,1,32,55.92ZM44.24,21.38,33.63,32,44.24,42.62a1.14,1.14,0,0,1,0,1.62,1.13,1.13,0,0,1-1.62,0L32,33.63,21.38,44.24a1.12,1.12,0,0,1-.81.34,1.1,1.1,0,0,1-.81-.34,1.14,1.14,0,0,1,0-1.62L30.37,32,19.76,21.38a1.15,1.15,0,0,1,1.62-1.62L32,30.37,42.62,19.76a1.15,1.15,0,0,1,1.62,1.62Z" style="fill:#231f20"/></svg>