<svg id="Layer_1" data-name="Layer 1" xmlns="http://www.w3.org/2000/svg" viewBox="0 0 64 64"><title>favourite activeldpi</title><path d="M56.05,25.28,44.86,36.19l2.64,15.4a1.15,1.15,0,0,1-.45,1.13,1.17,1.17,0,0,1-1.22.08L32,45.53,18.17,52.8a1.17,1.17,0,0,1-.54.14,1.2,1.2,0,0,1-.68-.22,1.15,1.15,0,0,1-.45-1.13l2.64-15.4L8,25.28a1.13,1.13,0,0,1-.29-1.18,1.15,1.15,0,0,1,.92-.79l15.47-2.24L31,7.05a1.15,1.15,0,0,1,2.06,0l6.92,14,15.47,2.24a1.15,1.15,0,0,1,.92.79A1.13,1.13,0,0,1,56.05,25.28Z" style="fill:#231f20"/></svg>