<svg id="Layer_1" data-name="Layer 1" xmlns="http://www.w3.org/2000/svg" viewBox="0 0 64 64"><title>favourite ldpi</title><path d="M46.37,52.94a1.17,1.17,0,0,1-.54-.14L32,45.53,18.17,52.8a1.15,1.15,0,0,1-1.67-1.21l2.64-15.4L8,25.28a1.13,1.13,0,0,1-.29-1.18,1.15,1.15,0,0,1,.92-.79l15.47-2.24L31,7.05a1.15,1.15,0,0,1,2.06,0l6.92,14,15.47,2.24a1.15,1.15,0,0,1,.92.79,1.13,1.13,0,0,1-.29,1.18L44.86,36.19l2.64,15.4a1.15,1.15,0,0,1-.45,1.13A1.2,1.2,0,0,1,46.37,52.94ZM32,43.08a1.16,1.16,0,0,1,.54.13l12.3,6.47L42.49,36a1.17,1.17,0,0,1,.33-1l10-9.7L39,23.26a1.16,1.16,0,0,1-.87-.63L32,10.16,25.85,22.63a1.16,1.16,0,0,1-.87.63l-13.76,2,10,9.7a1.18,1.18,0,0,1,.33,1l-2.35,13.7,12.3-6.47A1.16,1.16,0,0,1,32,43.08Z" style="fill:#231f20"/></svg>