<svg id="Layer_1" data-name="Layer 1" xmlns="http://www.w3.org/2000/svg" viewBox="0 0 64 64"><title>feedbackldpi</title><path stroke="black" stroke-width="1" d="M40.27,25.18a.85.85,0,0,1-.85.84H23a.85.85,0,1,1,0-1.69H39.42A.85.85,0,0,1,40.27,25.18ZM23,19.79h3.73a.85.85,0,0,0,0-1.69H23a.85.85,0,1,0,0,1.69ZM46.9,25.18a.84.84,0,0,0-.84-.85H42.33a.85.85,0,0,0,0,1.69h3.73A.84.84,0,0,0,46.9,25.18Zm4.56-11.26V31.61a.85.85,0,0,1-.84.85H45.56L41,37a.85.85,0,0,1-.92.18.84.84,0,0,1-.52-.78v-4h-11v1.78a1.14,1.14,0,0,0,1.13,1.14h4.6a2.32,2.32,0,0,1,2.31,2.31,2.36,2.36,0,0,1-.56,1.5,2.38,2.38,0,0,1,0,3.1,2.35,2.35,0,0,1,.59,1.56,2.39,2.39,0,0,1-.81,1.79A2.63,2.63,0,0,1,36.18,47,2.29,2.29,0,0,1,34,49.38H18.44v.7a.84.84,0,0,1-.84.84H13.38a.84.84,0,0,1-.84-.84V36.43a.85.85,0,0,1,.84-.84H17.6a.85.85,0,0,1,.84.84v1.84a6.54,6.54,0,0,0,4.88-5.81H18.27a.85.85,0,0,1-.84-.85V13.92a.84.84,0,0,1,.84-.84H50.62A.84.84,0,0,1,51.46,13.92ZM45.21,30.77h4.56v-16H19.12v16h4.21V29a.84.84,0,0,1,.84-.84H26a2.63,2.63,0,0,1,2.63,2.6h11.8a.84.84,0,0,1,.84.84V34.4L44.62,31A.82.82,0,0,1,45.21,30.77ZM34.94,37.69a.63.63,0,0,0-.62-.63h-4.6a2.82,2.82,0,0,1-2.82-2.82V30.8a1,1,0,0,0-.94-.95H25v2.48C24.66,38.64,18.59,40,18.53,40l-.09,0v7.7H34c.21,0,.46-.3.46-.72s-.25-.73-.46-.73H33.1a.84.84,0,1,1,0-1.68h1.12a.72.72,0,0,0,0-1.44H33.1a.85.85,0,0,1,0-1.69h1.12a.72.72,0,0,0,0-1.44H33.1a.85.85,0,0,1,0-1.69h1.22A.62.62,0,0,0,34.94,37.69ZM16.75,49.24v-12H14.23v12ZM46.9,18.94a.84.84,0,0,0-.84-.84H29.59a.85.85,0,0,0,0,1.69H46.06A.84.84,0,0,0,46.9,18.94Z" style="fill:#231f20"/></svg>