<svg id="Layer_1" data-name="Layer 1" xmlns="http://www.w3.org/2000/svg" viewBox="0 0 64 64"><title>fileldpi</title><path stroke="black" stroke-width="1" d="M34.12,31.68c-.19.41-.37.83-.55,1.24l-.5,1.16c-.22.51-.44,1-.67,1.51a2.3,2.3,0,0,1-.61.81c-.1.08-.14.08-.17.08a.76.76,0,0,1-.36-.15,4.66,4.66,0,0,1-.77-.77l-.24-.28a5.13,5.13,0,0,0-1.06-1,2.22,2.22,0,0,0-2.85.11,6.58,6.58,0,0,0-1.11,1.2A27.85,27.85,0,0,0,23,39.35c-.12.25-.26.5-.4.74a1.55,1.55,0,0,0,.4,2,2.53,2.53,0,0,0,1.59.54h15a2.25,2.25,0,0,0,.41,0,2.06,2.06,0,0,0,1.65-2.15,2.78,2.78,0,0,0-.14-.65l0-.11a57.5,57.5,0,0,0-1.81-5.54,16.88,16.88,0,0,0-1.24-2.61,4.08,4.08,0,0,0-1-1.18,1.81,1.81,0,0,0-2.37,0A3.43,3.43,0,0,0,34.12,31.68Zm1.57,2.15c.17-.4.34-.79.52-1.18a1.07,1.07,0,0,1,.07-.15,3.16,3.16,0,0,1,.18.27A15.76,15.76,0,0,1,37.53,35c.6,1.55,1.15,3.24,1.73,5.31v0H25a23.79,23.79,0,0,1,2-3.41,4.47,4.47,0,0,1,.72-.79l0,0,.09.05a3.53,3.53,0,0,1,.59.58l.23.28a7,7,0,0,0,1.2,1.15,3,3,0,0,0,1.51.56,2.54,2.54,0,0,0,1.79-.58,4.6,4.6,0,0,0,1.23-1.61c.25-.52.48-1,.71-1.58Zm-7-1.36h.05a4,4,0,0,0,2.87-1.16,3.75,3.75,0,0,0,1.13-2.64A3.66,3.66,0,0,0,31.56,26a4.13,4.13,0,0,0-2.8-1.1h0a3.92,3.92,0,0,0-4,3.67,3.71,3.71,0,0,0,1,2.7A4.14,4.14,0,0,0,28.7,32.47Zm.05-5.32a1.9,1.9,0,0,1,1.24.48,1.39,1.39,0,0,1,.46,1,1.42,1.42,0,0,1-.44,1,1.89,1.89,0,0,1-1.28.5,1.79,1.79,0,0,1-1.28-.54,1.41,1.41,0,0,1-.41-1A1.63,1.63,0,0,1,28.75,27.15Zm19.66-4.8a1,1,0,0,0,0-.25c0-.06,0-.13,0-.19s-.07-.1-.1-.15a1.16,1.16,0,0,0-.16-.21l0,0L36.89,11.44s-.1,0-.14-.09a1.55,1.55,0,0,0-.22-.12,1,1,0,0,0-.24-.05,1,1,0,0,0-.17,0H16.73a1.16,1.16,0,0,0-1.15,1.15V50.74a1.16,1.16,0,0,0,1.15,1.15H47.27a1.15,1.15,0,0,0,1.15-1.15V22.37S48.42,22.36,48.41,22.35Zm-4.13-1.13h-7V14.89Zm1.84,28.37H17.88V13.44H35l0,8.92a1.15,1.15,0,0,0,1.15,1.15h10Z" style="fill:#231f20"/></svg>