<svg id="Layer_1" data-name="Layer 1" xmlns="http://www.w3.org/2000/svg" viewBox="0 0 64 64"><title>filterldpi</title><path d="M31.69,17.75a1.65,1.65,0,0,1,1.65-1.65H55.49a1.65,1.65,0,0,1,0,3.3H33.34A1.65,1.65,0,0,1,31.69,17.75Zm-24.88,0A1.65,1.65,0,0,1,8.46,16.1h12a5.24,5.24,0,1,1,0,3.3h-12A1.65,1.65,0,0,1,6.81,17.75Zm20.53,0a1.94,1.94,0,1,0-1.94,1.94A1.94,1.94,0,0,0,27.34,17.75ZM55.49,44.6H36.34a1.65,1.65,0,0,0,0,3.3H55.49a1.65,1.65,0,0,0,0-3.3Zm0-14.25H43.34a1.65,1.65,0,0,0,0,3.3H55.49a1.65,1.65,0,0,0,0-3.3ZM6.81,32a1.65,1.65,0,0,1,1.65-1.65h22a5.24,5.24,0,1,1,0,3.3h-22A1.65,1.65,0,0,1,6.81,32Zm26.65,0a1.94,1.94,0,1,0,1.94-1.94A1.94,1.94,0,0,0,33.46,32Zm.18,14.25A5.23,5.23,0,0,1,23.45,47.9h-15a1.65,1.65,0,0,1,0-3.3h15a5.23,5.23,0,0,1,10.19,1.65Zm-3.3,0a1.94,1.94,0,1,0-1.94,1.94A1.94,1.94,0,0,0,30.34,46.25Z"/></svg>