<svg id="Layer_1" data-name="Layer 1" xmlns="http://www.w3.org/2000/svg" viewBox="0 0 64 64"><title>folderldpi</title><path d="M51.39,16.8H32.69V14.63a2.18,2.18,0,0,0-2.18-2.18H16.4a2.19,2.19,0,0,0-2.18,2.18V16.8H12.55A2.19,2.19,0,0,0,10.37,19V45.44a2.16,2.16,0,0,0,2.18,2.13H51.39a2.16,2.16,0,0,0,2.18-2.13V19A2.19,2.19,0,0,0,51.39,16.8Zm-37,2.3a2.19,2.19,0,0,0,2.18-2.18V14.75H30.39v2.17a2.19,2.19,0,0,0,2.18,2.18h18.7v3.17H32.87a2.16,2.16,0,0,0-2.18,2.13v2h-18V19.1ZM51.27,45.27H12.67V28.7H30.81A2.16,2.16,0,0,0,33,26.57v-2H51.27Z" style="fill:#231f20"/></svg>