<svg id="Layer_1" data-name="Layer 1" xmlns="http://www.w3.org/2000/svg" viewBox="0 0 64 64"><title>followup2ldpi</title><path d="M23.75,11.32a1,1,0,0,1,.1-.78,9.41,9.41,0,0,1,16.3,0L50.23,28l.42-3.08a1,1,0,0,1,1.84-.48,1,1,0,0,1,.2.76l-.84,6.06a1,1,0,0,1-1,.89h-.15l-6-.84a1,1,0,0,1-.68-.39,1,1,0,0,1-.2-.76,1,1,0,0,1,.4-.68,1,1,0,0,1,.76-.2l4,.55L38.37,11.56a7.36,7.36,0,0,0-12.74,0A1,1,0,0,1,25,12a1,1,0,0,1-.78-.1A1,1,0,0,1,23.75,11.32ZM55,36.24a1,1,0,0,0-.63-.48,1,1,0,0,0-.77.1,1,1,0,0,0-.48.63,1,1,0,0,0,.1.77,7.36,7.36,0,0,1-6.37,11h-21l2.57-2.57a1,1,0,0,0,0-1.45,1,1,0,0,0-1.45,0L22.65,48.6a1,1,0,0,0,0,1.45L27,54.38a1,1,0,0,0,1.45-1.45l-2.57-2.57h21A9.42,9.42,0,0,0,55,36.24ZM23,24.14,21.57,18.2a1,1,0,0,0-.47-.63L21,17.51a1,1,0,0,0-1.07,0L14.39,18.9a1,1,0,0,0-.63.46,1,1,0,0,0-.12.78,1,1,0,0,0,.46.64,1,1,0,0,0,.78.11L18.36,20,9,36.24a9.42,9.42,0,0,0,8.15,14.12,1,1,0,0,0,0-2.06,7.36,7.36,0,0,1-6.37-11L20.15,21,21,24.63a1,1,0,1,0,2-.49Z" style="fill:#231f20"/></svg>