<svg id="Layer_1" data-name="Layer 1" xmlns="http://www.w3.org/2000/svg" viewBox="0 0 64 64"><title>followupldpi</title><path d="M52.41,16.16a.53.53,0,0,0,0-.11.27.27,0,0,0,0-.12l-.12-.21a.75.75,0,0,0-.12-.14l-.15-.1-.15-.07-.14,0-.1,0H12.46l-.06,0-.2,0-.15.07-.14.1a.37.37,0,0,0-.1.11l-.08.08-.11.27a.63.63,0,0,0,0,.13V38.74a.93.93,0,0,0,.93.92h4.08a31.65,31.65,0,0,0,4.79,7.65c4.79,5.81,10,9,14.67,9a9.11,9.11,0,0,0,5.09-1.51l2.44-2a2.42,2.42,0,0,0,.88-1.67,2.47,2.47,0,0,0-.55-1.81l-3.52-4.25a2.44,2.44,0,0,0-1.67-.89,2.49,2.49,0,0,0-1.8.55l-3.29,2.72a3.58,3.58,0,0,1-4.21.26A17.82,17.82,0,0,1,25.34,44a17.37,17.37,0,0,1-2.68-4.38H44.42a9.17,9.17,0,0,1-1.82,4,.92.92,0,0,0,.07,1.3A1,1,0,0,0,44,44.88a11.4,11.4,0,0,0,2.3-5.22h5.21a.93.93,0,0,0,.93-.92V16.16ZM38.55,46a.67.67,0,0,1,.42.22l3.51,4.26a.63.63,0,0,1,.14.46.64.64,0,0,1-.22.41l-2.35,2c-5.44,3.52-12.48-1.4-17.24-7.18a29.57,29.57,0,0,1-4.71-7.66l0-.09C16.84,35.31,16,31,19,27.92l2.44-2a.64.64,0,0,1,.87.08l3.51,4.26a.57.57,0,0,1,.14.45.64.64,0,0,1-.22.42L22.4,33.83A5.42,5.42,0,0,0,20.8,40a19.71,19.71,0,0,0,3.11,5.2,19.34,19.34,0,0,0,4.51,4,5.4,5.4,0,0,0,6.39-.4l3.29-2.71A.66.66,0,0,1,38.55,46Zm8.2-12.7a.91.91,0,0,0,1.18-.55.88.88,0,0,0,0-.71.94.94,0,0,0-.52-.48l-3.3-1.2a1,1,0,0,0-1.19.56l-1.19,3.3a.88.88,0,0,0,0,.71.94.94,0,0,0,.52.48,1,1,0,0,0,1.19-.56l.47-1.31a12.07,12.07,0,0,1,.72,4.26H22.28a3.62,3.62,0,0,1,1.3-2.55l3.29-2.72a2.47,2.47,0,0,0,.33-3.47l-3.51-4.26a2.47,2.47,0,0,0-3.48-.33l-2.52,2.08c-2.61,2.73-3.25,6.7-1.81,11.25H13.43V17.89L31.54,28.31a.94.94,0,0,0,.92,0L50.57,17.89V37.81H46.46a13.87,13.87,0,0,0-.79-4.89ZM32,26.44,16,17.21H48Z" style="fill:#231f20"/></svg>