<svg id="Layer_1" data-name="Layer 1" xmlns="http://www.w3.org/2000/svg" viewBox="0 0 64 64"><title>followup1ldpi</title><path d="M52.64,16.66a.9.9,0,0,0-.9-.9H49.21l-.74-3.18a.87.87,0,0,0-.4-.56,1,1,0,0,0-.68-.11L30.9,15.76H14a.9.9,0,0,0-.89.9v3.27l-2.46.57a.89.89,0,0,0-.56.4.86.86,0,0,0-.11.68L12.81,34a.94.94,0,0,0,.25.43V48.76a.89.89,0,0,0,.89.9h2.53l.74,3.18a.93.93,0,0,0,.41.56.85.85,0,0,0,.47.13.65.65,0,0,0,.2,0l16.14-3.77a.83.83,0,0,0,.22-.08H44a.83.83,0,0,0,.34-.07.81.81,0,0,0,.29-.19l7.76-7.76a.92.92,0,0,0,.22-.4l0-.07h0ZM18.77,51.56l-.44-1.9H26.9Zm28.16-37.7.44,1.9H38.8ZM43.09,41v6.83H14.85V17.56h36V40.11l-6.86,0A.91.91,0,0,0,43.09,41Zm6.48.88-4.68,4.68V41.93ZM13.06,21.77v5.32l-1.18-5ZM29.65,30v.6a.9.9,0,0,0,1.8,0v-7.1a.9.9,0,0,0-1.8,0v4.08a2.7,2.7,0,0,0-2.42-1.5,2.66,2.66,0,0,0-1.87.76.92.92,0,0,0-.82-.53H21.23V25.1h3.64a.9.9,0,0,0,0-1.8H20.33a.91.91,0,0,0-.9.9v6a.9.9,0,0,0,1.8,0V28.09h3.38a3,3,0,0,0-.08.68A2.7,2.7,0,0,0,29.65,30Zm-2.42-2.12a.91.91,0,1,1-.91.91A.91.91,0,0,1,27.23,27.86Zm8.47,8.06H34a.89.89,0,0,0-.81.5V34.1a.9.9,0,0,0-1.79,0v4.44a1,1,0,0,1-2.09,0V34.1a.9.9,0,0,0-1.8,0v4.44a2.84,2.84,0,0,0,5.59.71v4.22a.9.9,0,1,0,1.8,0v-2.6a.88.88,0,0,0,.4.1h.44a2.53,2.53,0,1,0,0-5Zm-.84,1.79h.84a.73.73,0,0,1,0,1.46h-.44a.88.88,0,0,0-.4.1Zm10.8-11.82a.88.88,0,0,0-1.14.54l-.81,2.27-.44-.59a1,1,0,0,0-1.43,0l-.44.59-.81-2.27a.88.88,0,0,0-.47-.51.87.87,0,0,0-.67,0A.88.88,0,0,0,38.9,27l.14.4a2.7,2.7,0,0,0-5,.8V23.48a.9.9,0,0,0-1.8,0v7.1a.9.9,0,0,0,1.8,0V29.31a2.71,2.71,0,0,0,5.36-.54,3,3,0,0,0,0-.43l.9,2.54a.89.89,0,0,0,.71.58.91.91,0,0,0,.86-.34l.72-1,.73,1a.9.9,0,0,0,.72.36h.14a.9.9,0,0,0,.71-.58L46.21,27A.89.89,0,0,0,45.66,25.89Zm-9,2a.91.91,0,1,1-.91.91A.91.91,0,0,1,36.69,27.86Z" style="fill:#231f20"/></svg>