<svg id="Layer_1" data-name="Layer 1" xmlns="http://www.w3.org/2000/svg" viewBox="0 0 64 64"><title>galleryldpi</title><path d="M50.29,20.4H49.22V20a3.78,3.78,0,0,0-3.78-3.77H14.06A3.78,3.78,0,0,0,10.28,20V39.83a3.78,3.78,0,0,0,3.78,3.77h.72v.79a3.43,3.43,0,0,0,3.43,3.43H50.29a3.43,3.43,0,0,0,3.43-3.43V23.83A3.43,3.43,0,0,0,50.29,20.4Zm0,25.6H18.21a1.61,1.61,0,0,1-1.6-1.61V43.6H45.44a3.8,3.8,0,0,0,3.69-3,.93.93,0,0,0,.06-.57,1,1,0,0,0,0-.25V22.22h1.07a1.61,1.61,0,0,1,1.6,1.61V44.39A1.61,1.61,0,0,1,50.29,46ZM14.06,18H45.44a2,2,0,0,1,2,1.95V38.07L36.75,27.43a.92.92,0,0,0-1.29,0l-10,10-3.62-3.63a.92.92,0,0,0-1.29,0l-7.62,7.62a1.92,1.92,0,0,1-.83-1.58V20A2,2,0,0,1,14.06,18Zm22,11.37L47.26,40.52a1.94,1.94,0,0,1-1.82,1.26H29.84l-3.07-3.07ZM21.2,35.73l6.05,6.05H15.15Zm4.53-5.68A3.77,3.77,0,1,0,22,26.28,3.78,3.78,0,0,0,25.73,30.05Zm0-5.71a1.95,1.95,0,1,1-1.94,1.94A1.94,1.94,0,0,1,25.73,24.34Z" style="fill:#231f20"/></svg>