<svg id="Layer_1" data-name="Layer 1" xmlns="http://www.w3.org/2000/svg" viewBox="0 0 64 64"><title>Homeldpi</title><path d="M32,18.53a3.92,3.92,0,1,0,3.91,3.91A3.91,3.91,0,0,0,32,18.53Zm0,5.94a2,2,0,1,1,2-2A2,2,0,0,1,32,24.47ZM53.74,27,34.87,8.12a4.07,4.07,0,0,0-5.74,0L10.26,27a1,1,0,0,0,0,1.33,1,1,0,0,0,1.34,0l1.94-1.94V47.09a4.18,4.18,0,0,0,4.17,4.18H46.29a4.18,4.18,0,0,0,4.17-4.18V26.38l1.94,1.94A.94.94,0,1,0,53.74,27ZM26.05,49.38V33H38V49.38Zm20.24,0H39.84V32a1,1,0,0,0-1-.94H25.11a1,1,0,0,0-.95.94V49.38H17.71a2.3,2.3,0,0,1-2.29-2.29V24.5l15.05-15a2.17,2.17,0,0,1,3.06,0l15,15.05V47.09A2.3,2.3,0,0,1,46.29,49.38Z" style="fill:#231f20"/></svg>