<svg id="Layer_1" data-name="Layer 1" xmlns="http://www.w3.org/2000/svg" viewBox="0 0 64 64"><title>importldpi</title><path d="M27.72,32.85a.83.83,0,0,1,0-1.18.85.85,0,0,1,1.17,0l2.27,2.26V27.58a.83.83,0,0,1,1.66,0v6.35l2.27-2.26a.85.85,0,0,1,1.18,0,.83.83,0,0,1,.24.58.8.8,0,0,1-.25.59l-3.9,3.85v.13l-.1-.09a.83.83,0,0,1-.54,0l-.1.09V36.7l-.06,0-.15-.13ZM33.58,14H30.42a.95.95,0,0,0,0,1.89h3.16a.95.95,0,0,0,0-1.89Zm12.4.09V49.87a3.5,3.5,0,0,1-3.49,3.49h-21A3.49,3.49,0,0,1,18,49.87V14.13a3.49,3.49,0,0,1,3.48-3.49h21A3.5,3.5,0,0,1,46,14.13ZM43.77,46.47H20.23v3.4a1.28,1.28,0,0,0,1.28,1.28h21a1.28,1.28,0,0,0,1.28-1.28Zm0-27.45H20.23V44.27H43.77V19Zm0-4.89a1.18,1.18,0,0,0-.1-.5,1.28,1.28,0,0,0-1.18-.79h-21a1.28,1.28,0,0,0-1.18.79,1.18,1.18,0,0,0-.1.5v2.69H43.77Z" style="fill:#231f20"/></svg>