<svg id="Layer_1" data-name="Layer 1" xmlns="http://www.w3.org/2000/svg" viewBox="0 0 64 64"><title>inviteldpi</title><path d="M55.78,32A23.81,23.81,0,1,1,41.22,10,1,1,0,1,1,40.4,12,21.75,21.75,0,1,0,53.69,32a1,1,0,1,1,2.09,0ZM25,21.79a7,7,0,1,1,7,7A7,7,0,0,1,25,21.79Zm2,0a5,5,0,1,0,5-5A5,5,0,0,0,27,21.79ZM45.23,46.56a1,1,0,0,0,1-1V39.32A8.33,8.33,0,0,0,37.91,31H26.08a8.33,8.33,0,0,0-8.32,8.32v6.23a1,1,0,1,0,2,0V39.32A6.33,6.33,0,0,1,26.08,33H37.91a6.33,6.33,0,0,1,6.32,6.32v6.23A1,1,0,0,0,45.23,46.56ZM44.16,20.62H48.4v4.24a1.05,1.05,0,1,0,2.1,0V20.62h4.23a1,1,0,1,0,0-2.09H50.5V14.29a1.05,1.05,0,0,0-2.1,0v4.24H44.16a1,1,0,1,0,0,2.09Z" style="fill:#231f20"/></svg>