<svg id="Layer_1" data-name="Layer 1" xmlns="http://www.w3.org/2000/svg" viewBox="0 0 64 64"><title>leadsldpi</title><path d="M21.25,21.24a4,4,0,1,0,4,4A4,4,0,0,0,21.25,21.24Zm0,5.87a1.84,1.84,0,1,1,1.84-1.84A1.84,1.84,0,0,1,21.25,27.11ZM37.51,13.16a4,4,0,1,0,4,4A4,4,0,0,0,37.51,13.16Zm0,5.86a1.83,1.83,0,1,1,1.84-1.83A1.83,1.83,0,0,1,37.51,19ZM32,5.83A26.17,26.17,0,1,0,58.17,32,26.2,26.2,0,0,0,32,5.83ZM32,56a23.91,23.91,0,0,1-18-8.22l13.62-9.33a1,1,0,0,0,.55,0L30,41.16a1,1,0,0,0,.21.3l1.26,1.84a1.1,1.1,0,0,0,1.52.29L50.32,31.8,50,33.12a1.1,1.1,0,0,0,.84,1.31,1.11,1.11,0,0,0,1.31-.84l.9-4.11a1.06,1.06,0,0,0-.15-.83,1,1,0,0,0-.69-.48l-4.11-.9a1.05,1.05,0,0,0-.83.15,1.07,1.07,0,0,0-.48.68,1,1,0,0,0,.14.83,1.09,1.09,0,0,0,.7.48l1.71.38-4.26,2.9V26.2a4.71,4.71,0,0,0-4.69-4.7H34.61a4.7,4.7,0,0,0-4.69,4.7V37.12L29.16,36a1.07,1.07,0,0,0-.31-.29V34.28a4.69,4.69,0,0,0-4.69-4.69H18.35a4.69,4.69,0,0,0-4.69,4.69v11L12.58,46A23.67,23.67,0,0,1,8,32,24,24,0,1,1,32,56Zm.12-15.64V26.2a2.5,2.5,0,0,1,2.49-2.5h5.81a2.5,2.5,0,0,1,2.49,2.5v8l-10.23,7Zm-5.47-6v2.1l-10.79,7.4v-9.5a2.49,2.49,0,0,1,2.49-2.49h5.81A2.49,2.49,0,0,1,26.65,34.28Z" style="fill:#231f20"/></svg>