<svg id="Layer_1" data-name="Layer 1" xmlns="http://www.w3.org/2000/svg" viewBox="0 0 64 64"><title>listldpi</title><path d="M30.76,32.86A.84.84,0,0,1,31.6,32h7.65a.84.84,0,0,1,0,1.68H31.6A.85.85,0,0,1,30.76,32.86Zm.84-3.26h7.65a.85.85,0,0,0,0-1.69H31.6a.85.85,0,0,0,0,1.69Zm0-4.11h7.65a.84.84,0,0,0,0-1.68H31.6a.84.84,0,0,0,0,1.68Zm0-4.1h7.65a.84.84,0,0,0,0-1.68H31.6a.84.84,0,1,0,0,1.68Zm0,16.41h7.65a.84.84,0,1,0,0-1.68H31.6a.84.84,0,0,0,0,1.68Zm-5.38-4.1h2.11a.84.84,0,1,0,0-1.68H26.22a.84.84,0,1,0,0,1.68Zm0,4.1h2.11a.84.84,0,0,0,0-1.68H26.22a.84.84,0,1,0,0,1.68Zm25.5,4v5a4.45,4.45,0,0,1-4.45,4.44H24.76a4.45,4.45,0,0,1-4.45-4.44V22.21l-6.38-.07a.86.86,0,0,1-.83-.84v-5a4.46,4.46,0,0,1,4.45-4.45H39.4A5.1,5.1,0,0,1,44.5,17V40.9l6.38.07A.85.85,0,0,1,51.72,41.81Zm-1.69,5V42.65l-6.38-.07-14.44.07v4.14a4.41,4.41,0,0,1-1,2.76h19A2.77,2.77,0,0,0,50,46.79ZM22,16.32V46.79a2.77,2.77,0,0,0,5.53,0v-5a.84.84,0,0,1,.83-.84l14.46-.07V17a3.42,3.42,0,0,0-3.42-3.41H21A4.44,4.44,0,0,1,22,16.32Zm-7.21,0v4.14l5.52.06v-4.2a2.76,2.76,0,1,0-5.52,0ZM26.22,29.6h2.11a.85.85,0,0,0,0-1.69H26.22a.85.85,0,1,0,0,1.69Zm0-4.11h2.11a.84.84,0,0,0,0-1.68H26.22a.84.84,0,1,0,0,1.68Zm0-4.1h2.11a.84.84,0,0,0,0-1.68H26.22a.84.84,0,1,0,0,1.68Z" style="fill:#231f20"/></svg>