<svg id="Layer_1" data-name="Layer 1" xmlns="http://www.w3.org/2000/svg" viewBox="0 0 64 64"><title>locationldpi</title><path d="M32.82,27.81a7.27,7.27,0,1,0-7.26-7.27A7.28,7.28,0,0,0,32.82,27.81Zm0-12.64a5.37,5.37,0,1,1-5.37,5.37A5.38,5.38,0,0,1,32.82,15.17Zm17.35,3.58h0a1,1,0,0,0-.87-.11l-2.8,1a13.71,13.71,0,0,0-27.39.86c0,.17,0,.34,0,.51l-5.23,3a1,1,0,0,0-.48.82V50.11a.93.93,0,0,0,.45.8,1,1,0,0,0,.91.06L26,45.61l11.46,6a.93.93,0,0,0,.44.11,1.08,1.08,0,0,0,.43-.1l11.75-6.07a.94.94,0,0,0,.52-.84V19.53A1,1,0,0,0,50.17,18.75Zm-17.35-10A11.83,11.83,0,0,1,44.64,20.54c0,4.54-6.28,13.52-11.82,20C30.3,37.6,22,27.37,21.08,21.42a6.35,6.35,0,0,1-.08-.88A11.83,11.83,0,0,1,32.82,8.73ZM19.49,23c.75,2.79,2.64,6.37,5.62,10.66a.88.88,0,0,0-.06.33V44l-9.73,4.65V25.45Zm14,19.62c.18-.2,1.57-1.78,3.4-4.1V49.18l-10-5.2V36.24c2.6,3.49,4.89,6.09,5.17,6.41A1,1,0,0,0,33.53,42.65Zm5.29-6.58C42,31.8,45.8,26,46.43,21.72l2.25-.83V44.1l-9.86,5.09Z" style="fill:#231f20"/></svg>