<svg id="Layer_1" data-name="Layer 1" xmlns="http://www.w3.org/2000/svg" viewBox="0 0 64 64"><title>location servicesldpi</title><path d="M32,5.78A26.22,26.22,0,1,0,58.22,32,26.25,26.25,0,0,0,32,5.78Zm0,50.14A23.92,23.92,0,1,1,55.92,32,23.95,23.95,0,0,1,32,55.92ZM42.56,19.11,14.44,31.69a1.15,1.15,0,0,0,.3,2.19L27.63,35.8l1.71,12.62a1.17,1.17,0,0,0,1,1h.16a1.14,1.14,0,0,0,1.05-.68L44.08,20.63a1.13,1.13,0,0,0-.24-1.28A1.15,1.15,0,0,0,42.56,19.11Zm-11.48,25-1.29-9.47a1.16,1.16,0,0,0-1-1L19,32.18l21.79-9.74Z"/></svg>