<svg id="Layer_1" data-name="Layer 1" xmlns="http://www.w3.org/2000/svg" viewBox="0 0 64 64"><title>massageldpi</title><path d="M47.66,38.89H31a.81.81,0,0,1-.81-.81.82.82,0,0,1,.81-.82H47.66a.82.82,0,0,1,.81.82A.81.81,0,0,1,47.66,38.89ZM31,35.19H47.66a.82.82,0,0,0,.81-.82.81.81,0,0,0-.81-.81H31a.81.81,0,0,0-.81.81A.82.82,0,0,0,31,35.19ZM40.93,41H31a.82.82,0,0,0-.81.82.81.81,0,0,0,.81.81h9.94a.81.81,0,0,0,.81-.81A.82.82,0,0,0,40.93,41ZM29.06,27.15a.81.81,0,0,0-.81-.81H18.31a.81.81,0,0,0-.81.81.82.82,0,0,0,.81.82h9.94A.82.82,0,0,0,29.06,27.15ZM18.31,20.38H35a.82.82,0,0,0,.81-.82.81.81,0,0,0-.81-.81H18.31a.81.81,0,0,0-.81.81A.82.82,0,0,0,18.31,20.38Zm34.48,9.09V45.86a.81.81,0,0,1-.81.81H48.19v4.17a.79.79,0,0,1-.5.75.67.67,0,0,1-.31.07.84.84,0,0,1-.58-.24l-4.74-4.75H26.67a.81.81,0,0,1-.81-.81V32.37H23.94L19.2,37.11a.84.84,0,0,1-.89.18.82.82,0,0,1-.5-.76V32.37H14a.82.82,0,0,1-.81-.82V15.16a.82.82,0,0,1,.81-.82H39.33a.82.82,0,0,1,.81.82V28.65H52A.82.82,0,0,1,52.79,29.47ZM47.38,45.05h3.78V30.28h-11v1.27a.82.82,0,0,1-.81.82H27.49V45.05H42.4a.79.79,0,0,1,.57.23l3.6,3.6v-3A.81.81,0,0,1,47.38,45.05ZM23.6,30.74H38.51V16H14.84V30.74h3.78a.81.81,0,0,1,.81.81v3L23,31A.76.76,0,0,1,23.6,30.74Zm-5.29-6.57H35a.81.81,0,0,0,.81-.81.82.82,0,0,0-.81-.82H18.31a.82.82,0,0,0-.81.82A.81.81,0,0,0,18.31,24.17Z" style="fill:#231f20"/></svg>