<svg id="Layer_1" data-name="Layer 1" xmlns="http://www.w3.org/2000/svg" viewBox="0 0 64 64"><title>meeting_1ldpi</title><path d="M31.51,23A5.47,5.47,0,1,0,26,17.56,5.47,5.47,0,0,0,31.51,23Zm-3.08-5.47a3.07,3.07,0,1,1,3.08,3.07A3.08,3.08,0,0,1,28.43,17.56Zm21.29-5.47a5.47,5.47,0,1,0,5.46,5.47A5.48,5.48,0,0,0,49.72,12.09Zm3.07,5.47a3.07,3.07,0,1,1-3.07-3.07A3.08,3.08,0,0,1,52.79,17.56Zm-34,0A5.47,5.47,0,1,0,13.29,23,5.48,5.48,0,0,0,18.76,17.56Zm-2.4,0a3.07,3.07,0,1,1-3.07-3.07A3.07,3.07,0,0,1,16.36,17.56Zm5.48,22.13H41.17a1.2,1.2,0,0,0,1.2-1.2v-7.4a7,7,0,0,0-7-7H27.67a7,7,0,0,0-7,7v7.4A1.2,1.2,0,0,0,21.84,39.69ZM23,37.3V31.09a4.63,4.63,0,0,1,4.63-4.63h7.67A4.63,4.63,0,0,1,40,31.09V37.3Zm3.27,6.91V56.48a1.2,1.2,0,0,1-2.4,0V45.41H13.49a1.2,1.2,0,0,1-1.2-1.2V25.88a1.2,1.2,0,0,1,2.4,0V43H25.11A1.2,1.2,0,0,1,26.31,44.21ZM51,25.88V44.21a1.2,1.2,0,0,1-1.2,1.2H39.38V56.48a1.2,1.2,0,0,1-2.4,0V44.21a1.2,1.2,0,0,1,1.2-1.2H48.6V25.88a1.2,1.2,0,0,1,2.4,0Z" style="fill:#231f20"/></svg>