<svg id="Layer_1" data-name="Layer 1" xmlns="http://www.w3.org/2000/svg" viewBox="0 0 64 64"><title>meetingldpi</title><path d="M58.05,31.83,48.6,15.46a1.11,1.11,0,0,0-.67-.51,1.09,1.09,0,0,0-.83.11l-4.58,2.65a1.07,1.07,0,0,0-.52.67,1.14,1.14,0,0,0,.11.83L43,20.8a6.1,6.1,0,0,1-3.79-.39C35.15,18.87,28,19.71,25.86,22l-.07.09A6.14,6.14,0,0,1,21,20.4l1-1.64a1.17,1.17,0,0,0,.11-.84,1.11,1.11,0,0,0-.52-.66l-4.58-2.65a1.05,1.05,0,0,0-.83-.11,1.14,1.14,0,0,0-.67.51L6,31.38a1.09,1.09,0,0,0,.4,1.5L11,35.53a1.15,1.15,0,0,0,1.51-.4l.86-1.5,2.27,2.48a3.16,3.16,0,0,0,1.8,5,3.16,3.16,0,0,0,3.54,3.65,3.18,3.18,0,0,0,3.34,2.35h.08a3.14,3.14,0,0,0,1,1.64,3.19,3.19,0,0,0,2.05.75h.27a3.14,3.14,0,0,0,2.16-1.12l.52-.61a10.31,10.31,0,0,0,3.22.55,6.42,6.42,0,0,0,5.09-2.27,3.19,3.19,0,0,0,2.69-1.7,2.92,2.92,0,0,0,.36-1.21,3.23,3.23,0,0,0,3.2-1.6,3.15,3.15,0,0,0,.42-1.24,3.12,3.12,0,0,0,3.53-3.88,12.65,12.65,0,0,0,2-2.05l.69,1.21a1.15,1.15,0,0,0,1.51.4l4.58-2.65a1.1,1.1,0,0,0,.4-1.5ZM19.46,18.61,11.11,33.07,8.44,31.53l8.34-14.46Zm18.32,15a1.1,1.1,0,0,0-1.11,1.9L42.77,39a1.06,1.06,0,0,1,.4.58,1.07,1.07,0,0,1-.12.82,1.08,1.08,0,0,1-1.43.42l-1.41-.74L40,40l-4.87-2.5a1.08,1.08,0,0,0-1.48.47,1.1,1.1,0,0,0,.47,1.48l5,2.58a1,1,0,0,1,.31,1.29,1,1,0,0,1-1.32.44l-5-2.38a1.1,1.1,0,0,0-1.47.52.86.86,0,0,0-.07.21,3,3,0,0,0-.32-.3,3.08,3.08,0,0,0-1.42-.68,3.16,3.16,0,0,0-1.1-2.78,3.07,3.07,0,0,0-1.55-.71,3.16,3.16,0,0,0-3.43-3.31,3.2,3.2,0,0,0-1.52.54,3.12,3.12,0,0,0-.71-.87,3.19,3.19,0,0,0-4.48.38l0,0-2.54-2.78,5.36-9.29A8.36,8.36,0,0,0,24,24.22a27.21,27.21,0,0,0-2.75,4.66,1.11,1.11,0,0,0,.41,1.36c.19.12,4.8,3,8.88-2.57l1.58-.55,14.25,9.32a.93.93,0,0,1,.27,1.28h0a.93.93,0,0,1-1.25.3l-1.48-.87L43.76,37ZM17.49,38.79a1,1,0,0,1-.34-.66,1,1,0,0,1,.22-.72l1.37-1.62a1,1,0,0,1,1.38-.11,1,1,0,0,1,.35.66,1,1,0,0,1-.23.71l-1.37,1.63A1,1,0,0,1,17.49,38.79ZM19.78,41l3.51-4.15a1,1,0,0,1,1.38-.11,1,1,0,0,1,.11,1.38l-3.5,4.14a1,1,0,0,1-.67.35,1,1,0,0,1-.71-.23A1,1,0,0,1,19.78,41Zm3.48,2.33L26,40.14a1,1,0,0,1,.75-.35.93.93,0,0,1,.62.23,1,1,0,0,1,.12,1.38l-2.7,3.19a.93.93,0,0,1-.66.34h0a.92.92,0,0,1-.7-.22A1,1,0,0,1,23,44,1,1,0,0,1,23.26,43.33ZM26.7,45.7l1.77-2.11a1,1,0,0,1,.75-.34,1,1,0,0,1,.63.23,1,1,0,0,1,.35.66,1,1,0,0,1-.23.72L28.19,47a1,1,0,0,1-.67.35,1,1,0,0,1-.71-.23,1,1,0,0,1-.11-1.38ZM32.39,44a3.33,3.33,0,0,0-.1-.55l4,1.9a5.34,5.34,0,0,1-4.4.62A3.1,3.1,0,0,0,32.39,44Zm-.1-19.16a1,1,0,0,0-.36.06l-2.42.84a1.14,1.14,0,0,0-.55.42c-2,2.92-4,3-5.19,2.66a24.85,24.85,0,0,1,3.69-5.28c1.43-1.5,7.58-2.33,11-1a7.62,7.62,0,0,0,5.68.27l5.48,9.5a9.33,9.33,0,0,1-2,2.39l0,0L32.89,25A1.08,1.08,0,0,0,32.29,24.8ZM55.6,32l-2.68,1.54L44.57,19.06l2.68-1.54Z" style="fill:#231f20"/></svg>