<svg id="Layer_1" data-name="Layer 1" xmlns="http://www.w3.org/2000/svg" viewBox="0 0 64 64"><title>notesldpi</title><path stroke="black" stroke-width="1" d="M18,18.57a.82.82,0,0,1,.82-.82h8.28a.82.82,0,1,1,0,1.63H18.78A.82.82,0,0,1,18,18.57Zm9.1,20.89H18.78a.82.82,0,0,0,0,1.64h8.28a.82.82,0,1,0,0-1.64ZM53.21,19.53a2.12,2.12,0,0,1-.55,1.52l-7,7.73v21.7a.82.82,0,0,1-.82.81H16.74a.82.82,0,0,1-.82-.81V49.14H14.55a.82.82,0,0,1-.81-.82V13.52a.81.81,0,0,1,.81-.81h28a.82.82,0,0,1,.82.81v1.67h1.49a.82.82,0,0,1,.82.82v4.27l2.8-3.08a2.09,2.09,0,0,1,1.46-.69,2.12,2.12,0,0,1,1.52.55l1.11,1A2.15,2.15,0,0,1,53.21,19.53Zm-9.89-2.7v6l.67-.74V16.83Zm7,4.38L51.45,20a.42.42,0,0,0,.12-.34.49.49,0,0,0-.15-.34l-1.11-1a.44.44,0,0,0-.34-.12.45.45,0,0,0-.33.15l-1.15,1.26Zm-1.88,2.06.78-.85-1.82-1.65-.77.85ZM44,49.66V30.57l-.67.74v17a.82.82,0,0,1-.82.82H17.55v.52ZM15.37,47.5H41.68V33.11L34.5,41a.85.85,0,0,1-.32.21L30,42.83a.87.87,0,0,1-.85-.16.82.82,0,0,1-.23-.82l1.2-4.36a.87.87,0,0,1,.07-.17H18.78a.82.82,0,0,1,0-1.64H31.6l10.1-11.1a.88.88,0,0,1,0-.17V14.34H15.37Zm18.05-7.74L47.33,24.48l-1.82-1.65L31.6,38.11l-.72,2.62ZM18.78,32.83H31.5a.82.82,0,0,0,.82-.81.82.82,0,0,0-.82-.82H18.78A.82.82,0,0,0,18,32,.82.82,0,0,0,18.78,32.83Zm0-4.48H34.65a.82.82,0,0,0,.82-.82.82.82,0,0,0-.82-.81H18.78a.82.82,0,0,0-.82.81A.82.82,0,0,0,18.78,28.35Zm0-4.48H38a.82.82,0,1,0,0-1.64H18.78a.82.82,0,0,0,0,1.64Z" style="fill:#231f20"/></svg>