<svg id="Layer_1" data-name="Layer 1" xmlns="http://www.w3.org/2000/svg" viewBox="0 0 64 64"><title>opportunityldpi</title><path stroke="black" stroke-width="1" d="M56.45,32a24.43,24.43,0,1,1-15-22.57,1.15,1.15,0,1,1-.89,2.13A21.94,21.94,0,0,0,32,9.85a22.13,22.13,0,1,0,20.6,14A1.15,1.15,0,1,1,54.74,23,24.2,24.2,0,0,1,56.45,32ZM32,22.5a9.55,9.55,0,0,1,3.7.74,1.15,1.15,0,0,0,1.51-.61,1.16,1.16,0,0,0-.62-1.51,11.78,11.78,0,1,0,6.31,6.34,1.15,1.15,0,0,0-2.13.88A9.34,9.34,0,0,1,41.5,32,9.5,9.5,0,1,1,32,22.5Zm-.81,10.31a1.13,1.13,0,0,0,1.62,0L48.15,17.47l5.84.1h0a1.15,1.15,0,0,0,0-2.3l-5.2-.08v-5a1.15,1.15,0,1,0-2.3,0v5.64L31.19,31.19A1.14,1.14,0,0,0,31.19,32.81Z" style="fill:#231f20"/></svg>