<svg id="Layer_1" data-name="Layer 1" xmlns="http://www.w3.org/2000/svg" viewBox="0 0 64 64"><title>passwordldpi</title><path d="M23.91,44.87l1.67-1.66-1.67-1.67a.91.91,0,0,1,0-1.28.94.94,0,0,1,1.29,0l1.67,1.66,1.66-1.66a.94.94,0,0,1,1.29,0,.91.91,0,0,1,0,1.28l-1.67,1.67,1.67,1.66a.92.92,0,0,1-.65,1.56.91.91,0,0,1-.64-.27l-1.66-1.67L25.2,46.16a.94.94,0,0,1-1.29,0A.92.92,0,0,1,23.91,44.87Zm6.38,2.36H23.44a.91.91,0,0,0,0,1.82h6.85a.91.91,0,0,0,0-1.82ZM13.64,46.16a.94.94,0,0,0,1.29,0l1.66-1.67,1.67,1.67a.91.91,0,0,0,.64.27.92.92,0,0,0,.65-1.56l-1.67-1.66,1.67-1.67a.91.91,0,0,0-1.29-1.28l-1.67,1.66-1.66-1.66a.94.94,0,0,0-1.29,0,.91.91,0,0,0,0,1.28l1.67,1.67-1.67,1.66A.92.92,0,0,0,13.64,46.16ZM43.87,28a6.72,6.72,0,0,1-6.72,6.71H26.85A6.72,6.72,0,0,1,20.13,28V18.16a.91.91,0,0,1,.91-.91h4.09l-.32-.64A7.44,7.44,0,0,1,38.13,10l1,2a.91.91,0,1,1-1.63.81l-1-2a5.62,5.62,0,0,0-10.06,5l.72,1.45H43a.91.91,0,0,1,.91.91Zm-1.82,0V19.07H22V28a4.91,4.91,0,0,0,4.9,4.9h10.3A4.91,4.91,0,0,0,42.05,28ZM20,47.23H13.17a.91.91,0,0,0,0,1.82H20a.91.91,0,0,0,0-1.82Zm30.81,0H44a.91.91,0,0,0,0,1.82h6.85a.91.91,0,0,0,0-1.82ZM34.73,26a2.74,2.74,0,0,1-1.82,2.57v2.32a.91.91,0,1,1-1.82,0V28.55A2.73,2.73,0,1,1,34.73,26Zm-3.64,0a.91.91,0,1,0,.91-.91A.91.91,0,0,0,31.09,26Zm3.09,20.18a.94.94,0,0,0,1.29,0l1.66-1.67,1.67,1.67a.91.91,0,0,0,.64.27.92.92,0,0,0,.65-1.56l-1.67-1.66,1.67-1.67a.91.91,0,0,0,0-1.28.94.94,0,0,0-1.29,0l-1.67,1.66-1.66-1.66a.94.94,0,0,0-1.29,0,.91.91,0,0,0,0,1.28l1.67,1.67-1.67,1.66A.92.92,0,0,0,34.18,46.16Zm6.38,1.07H33.71a.91.91,0,0,0,0,1.82h6.85a.91.91,0,0,0,0-1.82Z" style="fill:#231f20"/></svg>