<svg id="Layer_1" data-name="Layer 1" xmlns="http://www.w3.org/2000/svg" viewBox="0 0 64 64"><title>productldpi</title><path stroke="black" stroke-width="1" d="M21.69,41.3A1,1,0,0,1,22.27,40l2.21-.86.19,0h.18l0,0,.22,0,.12.06a1.13,1.13,0,0,1,.2.13l.1.11s0,0,.05.05l2,2.6a1,1,0,0,1-.2,1.46h0a1.07,1.07,0,0,1-1.46-.2l-.14-.19-.05,3.2a1,1,0,0,1-1,1,1,1,0,0,1-.74-.31,1,1,0,0,1-.3-.74l.07-4.68-.66.27a1,1,0,0,1-.8,0A1,1,0,0,1,21.69,41.3Zm32-22.67v25.3a1,1,0,0,1-.54.91L32.37,56.32a1,1,0,0,1-.37.08,1.15,1.15,0,0,1-.36-.07l-.11,0L10.9,45.66a1,1,0,0,1-.57-.92V19.54a1,1,0,0,1,.12-.46l.07-.12a1.12,1.12,0,0,1,.18-.2l.13-.11L31.66,6.05a1.06,1.06,0,0,1,1.06,0L53.28,17.83a1,1,0,0,1,.19.21l.08.12a1.24,1.24,0,0,1,.1.31ZM27.05,11.27,44.91,22l5.65-3.35L32.22,8.15Zm-5.61,3.4,17.8,10.69,3.63-2.16L25,12.49ZM40.32,27.14v5.73l3.63-2V25ZM31,31.48,12.41,21.3V44.1L31,53.65Zm6.25-4.92L19.42,15.89l-6,3.61L32,29.66Zm14.38-6.1L46,23.75v7.74a1,1,0,0,1-.54.91l-5.71,3.14a1.05,1.05,0,0,1-1,0,1,1,0,0,1-.51-.89V28.37L33,31.45V53.59L51.59,43.32Z" style="fill:#231f20"/></svg>