<svg id="Layer_1" data-name="Layer 1" xmlns="http://www.w3.org/2000/svg" viewBox="0 0 64 64"><title>profileldpi</title><path d="M32,5.9A26.1,26.1,0,1,0,58.1,32,26.13,26.13,0,0,0,32,5.9Zm0,50A23.9,23.9,0,1,1,55.9,32,23.93,23.93,0,0,1,32,55.9Zm0-27.45a7.65,7.65,0,1,0-7.65-7.65A7.66,7.66,0,0,0,32,28.45Zm0-13.1a5.45,5.45,0,1,1-5.45,5.45A5.46,5.46,0,0,1,32,15.35ZM47.61,40v6.83a1.1,1.1,0,0,1-2.2,0V40a6.94,6.94,0,0,0-6.92-6.93h-13A6.94,6.94,0,0,0,18.59,40v6.83a1.1,1.1,0,0,1-2.2,0V40a9.13,9.13,0,0,1,9.13-9.13h13A9.13,9.13,0,0,1,47.61,40Z" style="fill:#231f20"/></svg>