<svg id="Layer_1" data-name="Layer 1" xmlns="http://www.w3.org/2000/svg" viewBox="0 0 64 64"><title>ratingldpi</title><path d="M48.57,14.34H15.43c-2,0-3.58,2.11-3.58,4.69V45.52c0,2.59,1.61,4.69,3.58,4.69H27.69l3.6,5.09a.88.88,0,0,0,1.42,0l3.6-5.09H48.57c2,0,3.58-2.1,3.58-4.69V19C52.15,16.45,50.54,14.34,48.57,14.34Zm0,34.14H35.86a.89.89,0,0,0-.71.37L32,53.3l-3.15-4.45a.89.89,0,0,0-.71-.37H15.43c-1,0-1.85-1.35-1.85-3V19c0-1.6.85-3,1.85-3H48.57c1,0,1.85,1.36,1.85,3V45.52C50.42,47.13,49.57,48.48,48.57,48.48ZM41,30l-5.14-.75-2.29-4.64a1.75,1.75,0,0,0-1.57-1,1.73,1.73,0,0,0-1.57,1l-2.31,4.65L23,30a1.76,1.76,0,0,0-1,3l3.71,3.63-.87,5.1a1.74,1.74,0,0,0,.69,1.72,1.78,1.78,0,0,0,1,.33,1.71,1.71,0,0,0,.82-.2L32,41.17l4.58,2.41a1.77,1.77,0,0,0,1.85-.13,1.74,1.74,0,0,0,.69-1.72l-.87-5.12L42,33a1.76,1.76,0,0,0-1-3ZM27.45,36.93a1.72,1.72,0,0,0-.51-1.55l-3.69-3.65L28.37,31a1.73,1.73,0,0,0,1.32-1L32,25.38,34.31,30a1.75,1.75,0,0,0,1.32,1l5.14.76s0,0,0,0l-3.7,3.62a1.72,1.72,0,0,0-.51,1.55l.85,5.12-4.58-2.41a1.78,1.78,0,0,0-1.64,0L26.57,42Z" style="fill:#231f20"/></svg>