<svg xmlns="http://www.w3.org/2000/svg" width="15.957" height="13.668" viewBox="0 0 15.957 13.668">
  <path id="Imported-Layers" d="M2.028,4.029a7.182,7.182,0,1,0,9.886-4,.851.851,0,0,0-.932.407l-.044.126a.82.82,0,0,0,.422.992A5.568,5.568,0,1,1,3.545,4.577a6.1,6.1,0,0,1,.274-.636L6.075,4.976c.3.141.451,0,.34-.318L5.069.485A.6.6,0,0,0,4.3.13L.244,1.787c-.318.111-.326.318-.022.459L2.368,3.311c-.111.222-.252.488-.34.718Z" transform="translate(15.957 13.668) rotate(180)" fill="#1c242e" fill-rule="evenodd"/>
</svg>
