<svg id="Layer_1" data-name="Layer 1" xmlns="http://www.w3.org/2000/svg" viewBox="0 0 64 64"><title>reportldpi</title><path d="M29.76,39.47a.82.82,0,1,1,0,1.63H21.48a.82.82,0,1,1,0-1.63ZM35,32a.82.82,0,0,0-.82-.82H21.48a.82.82,0,1,0,0,1.64H34.2A.82.82,0,0,0,35,32Zm-13.7-2.93a.82.82,0,0,0,.82-.82V28a.82.82,0,0,0-.82-.82.82.82,0,0,0-.81.82v.28A.82.82,0,0,0,21.32,29.09Zm9.79-.82V20.4a.82.82,0,0,0-1.64,0v7.87a.82.82,0,1,0,1.64,0Zm-4.48,0V17A.82.82,0,0,0,25,17V28.27a.82.82,0,0,0,1.64,0ZM46.69,49.8H17.59V13.41h28V27.24a1.15,1.15,0,0,0,2.3,0v-15a1.15,1.15,0,0,0-1.15-1.15H16.43a1.16,1.16,0,0,0-1.15,1.15V51a1.16,1.16,0,0,0,1.15,1.15H46.69a1.15,1.15,0,0,0,0-2.3Zm6-1.49a1.17,1.17,0,0,1-.81.33,1.14,1.14,0,0,1-.82-.34l-3.43-3.47a8.37,8.37,0,1,1,1.53-1.72l3.54,3.57A1.15,1.15,0,0,1,52.72,48.31ZM48.3,38.48a6.07,6.07,0,1,0-6.07,6.06A6.07,6.07,0,0,0,48.3,38.48Z" style="fill:#231f20"/></svg>