<svg id="Layer_1" data-name="Layer 1" xmlns="http://www.w3.org/2000/svg" viewBox="0 0 64 64"><title>sales orderldpi</title><path stroke="black" stroke-width="1" d="M54.14,34.15a1,1,0,0,0-.1-.28l0-.08a.73.73,0,0,0-.17-.18l-7.27-4.19V15a.89.89,0,0,0-.88-.88H37.86a5.85,5.85,0,0,0-1.84-2,3.64,3.64,0,0,0,.07-.74,3.9,3.9,0,1,0-7.79,0,3.65,3.65,0,0,0,.08.74,5.78,5.78,0,0,0-1.85,2H18.72a.88.88,0,0,0-.87.88V50.69a.87.87,0,0,0,.87.87h27a.88.88,0,0,0,.88-.87v-4.3l7.15-4a.86.86,0,0,0,.45-.76V34.15ZM29.79,13.29a.88.88,0,0,0,.42-1.12,2.1,2.1,0,0,1-.16-.82,2.15,2.15,0,1,1,4.3,0,2.11,2.11,0,0,1-.17.82.89.89,0,0,0,.42,1.12,4,4,0,0,1,2.18,2.77H27.61A4,4,0,0,1,29.79,13.29Zm16.76,31.1v-5.1l5.86-3.48v5.34Zm3-8.9-5.63-3.38L45.76,31l5.79,3.31ZM38.94,41.37V36.09L44.8,39.3v5.14l-5.31-2.73A.87.87,0,0,0,38.94,41.37Zm-.32-24.44a6,6,0,0,0-.11-1.1H44.8V29.52l-5.88,3.56H31.4a.87.87,0,0,0,0,1.74h5.8v6.54H31.4a.87.87,0,0,0,0,1.74h7l6.41,3.31v3.41H19.59v-34h6.3a5.2,5.2,0,0,0-.11,1.1.87.87,0,0,0,.87.87h11.1A.87.87,0,0,0,38.62,16.93Zm1.19,17.65,2.39-1.45,5.62,3.37-2.16,1.28ZM29.2,22.2a.87.87,0,0,1,0,1.23L25,27.61a.9.9,0,0,1-.62.26.88.88,0,0,1-.7-.36L21.85,25a.83.83,0,0,1-.16-.65A.87.87,0,0,1,23.25,24l1.25,1.69L28,22.2A.87.87,0,0,1,29.2,22.2Zm2.2,2.6H41.5a.88.88,0,1,1,0,1.75H31.4a.88.88,0,0,1,0-1.75Zm-2.2,14a.88.88,0,0,1,0,1.24L25,44.17a.89.89,0,0,1-.62.25.9.9,0,0,1-.7-.35l-1.85-2.51a.87.87,0,1,1,1.4-1l1.25,1.7L28,38.75A.87.87,0,0,1,29.2,38.75Zm0-8.27a.87.87,0,0,1,0,1.23L25,35.89a.9.9,0,0,1-.62.26.88.88,0,0,1-.7-.36l-1.85-2.51a.84.84,0,0,1-.16-.65.87.87,0,0,1,1.56-.38l1.25,1.69L28,30.48A.87.87,0,0,1,29.2,30.48Z" style="fill:#231f20"/></svg>