<svg id="Layer_1" data-name="Layer 1" xmlns="http://www.w3.org/2000/svg" viewBox="0 0 64 64"><title>searchldpi</title><path d="M52.55,49.62l-9.17-9.17A20.21,20.21,0,0,0,42,13.54,20.12,20.12,0,0,0,13.54,42,20.13,20.13,0,0,0,42,42a.3.3,0,0,0,.08-.08L51.17,51a1,1,0,0,0,1.38,0A1,1,0,0,0,52.55,49.62ZM41.42,39.74l-.33.37c-.16.17-.3.35-.47.51a18.46,18.46,0,1,1,.8-.88ZM29.11,17.26a1,1,0,0,1-.15-.74,1,1,0,0,1,.41-.62,1,1,0,0,1,.74-.15,12.08,12.08,0,0,1,2.75.88,1,1,0,0,1,.48,1.29,1,1,0,0,1-.89.58.93.93,0,0,1-.4-.09,10,10,0,0,0-2.31-.74A1,1,0,0,1,29.11,17.26Zm9.15,4.18A12.25,12.25,0,0,1,28.58,40h0a1,1,0,0,1-1-.91,1,1,0,0,1,.91-1,10.29,10.29,0,0,0,8.13-15.59,1,1,0,0,1-.11-.74.94.94,0,0,1,.45-.6.9.9,0,0,1,.73-.11,1,1,0,0,1,.61.44Z" style="fill:#231f20"/></svg>