
<svg id="Layer_1" data-name="Layer 1" xmlns="http://www.w3.org/2000/svg" viewBox="0 0 64 64"><path d="M48.37,28a8.6,8.6,0,0,0-2.17.28L41.85,18.11,45,16.8a1.49,1.49,0,0,0,.82-2,1.51,1.51,0,0,0-2-.82l-4.6,1.89a1.52,1.52,0,0,0-.81,2l1.89,4.4H25.56l-1.1-2.66h2.91a1.5,1.5,0,0,0,0-3h-8a1.5,1.5,0,0,0,0,3h1.88a.65.65,0,0,0,0,.13l1.58,3.82L19.2,28.74a9,9,0,1,0,5.33,9.88h5.55a1.55,1.55,0,0,0,.31,0,.29.29,0,0,0,.1,0l.17,0h0l.12-.06.15-.09.09-.08.15-.13s0,0,0,0l10.7-12.21,1.54,3.58A9,9,0,1,0,48.37,28ZM24.21,26.85l3.63,8.77H24.55a9,9,0,0,0-2.83-5.25Zm-4.24,6a6.09,6.09,0,0,1,1.53,2.78H18ZM15.63,43.09a6,6,0,0,1,0-12.09,6.19,6.19,0,0,1,1.78.27l-3.53,5a1.5,1.5,0,0,0,1.22,2.37h6.36A6,6,0,0,1,15.63,43.09Zm14.92-8.78-3.75-9H38.45Zm17.82,8.78a6,6,0,0,1-3.72-10.8l2.22,5.18a1.5,1.5,0,0,0,1.38.91,1.59,1.59,0,0,0,.59-.12,1.51,1.51,0,0,0,.79-2l-2.23-5.2a6.25,6.25,0,0,1,1-.09,6,6,0,0,1,0,12.09Z"/></svg>