<svg id="Layer_1" data-name="Layer 1" xmlns="http://www.w3.org/2000/svg" viewBox="0 0 64 64"><title>smsldpi</title><path d="M49.39,16H14.61a5.12,5.12,0,0,0-5.12,5.12V40.63a5.15,5.15,0,0,0,4.17,5v4.42a1.63,1.63,0,0,0,1,1.51,1.58,1.58,0,0,0,.63.13,1.63,1.63,0,0,0,1.16-.48L22,45.75H49.39a5.12,5.12,0,0,0,5.12-5.12V21.14A5.12,5.12,0,0,0,49.39,16Zm0,27.83H21.56a1,1,0,0,0-.67.28l-5.34,5.34V44.8a1,1,0,0,0-.94-.95,3.23,3.23,0,0,1-3.23-3.22V21.14a3.23,3.23,0,0,1,3.23-3.22H49.39a3.23,3.23,0,0,1,3.23,3.22V40.63A3.23,3.23,0,0,1,49.39,43.85ZM25,29.18a5.19,5.19,0,0,1,.29,1.7,5.12,5.12,0,1,1-5.12-5.12,5,5,0,0,1,1.71.3.94.94,0,0,1,.58,1.2,1,1,0,0,1-.49.54,1,1,0,0,1-.72,0,3.31,3.31,0,0,0-1.08-.18,3.21,3.21,0,1,0,3,2.15.9.9,0,0,1,0-.72,1,1,0,0,1,.54-.49,1,1,0,0,1,.72,0A.91.91,0,0,1,25,29.18Zm11.83,0a5.19,5.19,0,0,1,.29,1.7A5.12,5.12,0,1,1,32,25.76a5,5,0,0,1,1.71.3.93.93,0,0,1,.57,1.2.94.94,0,0,1-1.2.58A3.31,3.31,0,0,0,32,27.66a3.21,3.21,0,1,0,3,2.15,1,1,0,0,1,0-.72,1,1,0,0,1,.54-.49,1,1,0,0,1,.73,0A1,1,0,0,1,36.83,29.18Zm11.83,0a5.19,5.19,0,0,1,.29,1.7,5.12,5.12,0,1,1-5.12-5.12,4.91,4.91,0,0,1,1.7.3.89.89,0,0,1,.54.48.91.91,0,0,1,0,.72,1,1,0,0,1-.48.54,1,1,0,0,1-.73,0,3.23,3.23,0,1,0,2.16,3,3,3,0,0,0-.19-1.07,1,1,0,0,1,0-.72,1,1,0,0,1,.54-.49,1,1,0,0,1,.72,0A1,1,0,0,1,48.66,29.18Z"/></svg>