<svg id="Layer_1" data-name="Layer 1" xmlns="http://www.w3.org/2000/svg" viewBox="0 0 64 64"><defs><style>.cls-1{fill:#231f20;}</style></defs><path class="cls-1" d="M52.05,15.84h-.28c-.78,0-1.59,0-2.39,0h0v0a8.22,8.22,0,0,0,0-.86V14.6a2.26,2.26,0,0,0,0-.52,3.21,3.21,0,0,0-3.44-2.95H18.68a3.18,3.18,0,0,0-3,3c0,.54,0,1.08,0,1.66H13a1.26,1.26,0,0,0-1.39,1.42V24a1.19,1.19,0,0,0,1.19,1.32h0c.55,0,1.14-.34,1.19-1.32v-.37c0-.59,0-1.18,0-1.77,0-1.19,0-2.37,0-3.56v-.07h.07c.34,0,.68,0,1,0h.6V44.47c0,.26,0,.52,0,.78a3.14,3.14,0,0,0,2.87,2.94h0v0c0,1.05,0,2.11,0,3.13a2.82,2.82,0,0,0,2.61,3,34.41,34.41,0,0,0,3.8,0,2.62,2.62,0,0,0,2.44-2,4.43,4.43,0,0,0,.13-1.19V48.24h9.94v3.12a1.69,1.69,0,0,0,0,.45,2.83,2.83,0,0,0,3,2.61h2.72a2.17,2.17,0,0,0,.36,0,1.83,1.83,0,0,0,.33,0,2.87,2.87,0,0,0,1.95-1.08,2.83,2.83,0,0,0,.6-2.09v-3a5.1,5.1,0,0,0,1.6-.62,3.2,3.2,0,0,0,1.29-2.87V18.21h1.68v5.68c0,.8.33,1.27,1,1.4a1.12,1.12,0,0,0,1-.23,1.42,1.42,0,0,0,.46-1.14V17.24A1.26,1.26,0,0,0,52.05,15.84Zm-8,34.85c0,.26,0,.53,0,.79v.11a.45.45,0,0,1-.14.31.52.52,0,0,1-.36.12c-1.06,0-2.12,0-3.27,0a.46.46,0,0,1-.41-.53q0-1.62,0-3.24h4.18v2.44Zm-18.94.91a.43.43,0,0,1-.49.41c-1.07,0-2.15,0-3.25,0h0a.39.39,0,0,1-.4-.38c0-.84,0-1.68,0-2.55v-.85h4.16v1C25.15,50,25.16,50.75,25.14,51.6ZM47,33.82V44.71c0,.88-.25,1.13-1.11,1.13H19.19c-.88,0-1.13-.24-1.13-1.12V33.83ZM47,14.3v.54c0,.31,0,.63,0,1H29.63c-3.84,0-7.66,0-11.46,0h-.09v0c0-.26,0-.52,0-.78s0-.43,0-.68a.83.83,0,0,1,.24-.58.76.76,0,0,1,.6-.24H46.21A.82.82,0,0,1,47,14.3ZM18.09,31.39V18.22H47V31.39H18.09Z"/><path class="cls-1" d="M42,44.15h0A4.08,4.08,0,0,0,42.07,36a4.25,4.25,0,0,0-2.91,1.14A4,4,0,0,0,37.91,40,4.12,4.12,0,0,0,42,44.15Zm0-5.76h0a1.66,1.66,0,0,1,1.17.49,1.61,1.61,0,0,1,.48,1.19A1.7,1.7,0,0,1,42,41.76a1.68,1.68,0,0,1-1.68-1.68h-.18l.18,0A1.66,1.66,0,0,1,42,38.39Z"/><path class="cls-1" d="M23,44.15H23a4.12,4.12,0,0,0,4.11-4h0a4.09,4.09,0,0,0-4-4.13h-.05A4.08,4.08,0,0,0,23,44.15ZM21.38,40a1.68,1.68,0,0,1,1.69-1.66h0A1.68,1.68,0,0,1,24.74,40v.09a1.68,1.68,0,1,1-3.35,0Z"/><path class="cls-1" d="M30.28,41.28h4.51c.84,0,1.38-.48,1.38-1.2a1.21,1.21,0,0,0-1.38-1.19H30.27a1.21,1.21,0,0,0-1.38,1.19A1.23,1.23,0,0,0,30.28,41.28Z"/></svg>