<svg id="Layer_1" data-name="Layer 1" xmlns="http://www.w3.org/2000/svg" viewBox="0 0 64 64"><defs><style>.cls-1{fill:#231f20;}</style></defs><path class="cls-1" d="M48.12,34.81a23.67,23.67,0,0,0-3.29-15.58,4.75,4.75,0,0,0,2.49-3c.22-.79.29-1.36,0-1.78S46.4,14,45.58,14H18.37A6.46,6.46,0,0,0,17,14a6.16,6.16,0,0,0-5.44,6.77c0,5.18,0,10.37,0,15.59a3.64,3.64,0,0,1,0,.66,6.81,6.81,0,1,0,11.8,5.47h17a6.81,6.81,0,1,0,7.77-7.64Zm-2.21-5.68H42.44V19.68A20.81,20.81,0,0,1,45.91,29.13ZM46,31.58a18.78,18.78,0,0,1-.2,3.27,6.87,6.87,0,0,0-3.56,1.92c0-1.21,0-2.42,0-3.68V31.58ZM16.59,46.45a4.91,4.91,0,1,1,4.91-4.91A4.92,4.92,0,0,1,16.59,46.45ZM23.2,39.9a6.82,6.82,0,0,0-6.61-5.18,6.69,6.69,0,0,0-2.79.61V31.58h4.08c1.6,0,3.21,0,4.82,0l.15,0a.77.77,0,0,1,.79.78c.16.85.82,5.38,1,6.23l.3,1.53h-1.1A.75.75,0,0,1,23.2,39.9Zm9.36-8.2h1.91v8.36h-1.9V31.7ZM30,40.07H27.34c0-.16-.07-.32-.1-.48-.25-1.25-1-6.23-1.21-7.46a3.16,3.16,0,0,0-2.16-2.81.4.4,0,0,1-.22-.27c0-2.18,0-4.37,0-6.55V20.1c0-.36.11-.55.65-.55H30Zm6.75,0V40c0-1.34,0-6.27,0-7.6V31.7h.85a1,1,0,0,0,0-1.9H32.52L32.47,28V19.61H40l0,20.44H36.77ZM24.83,17.27c-2.61,0-3.49.87-3.49,3.46V28.5c0,.22,0,.45,0,.7H14.2l-.4,0v-2c0-.78,0-1.56,0-2.34,0-1.55,0-3.11,0-4.7,0-.07,0-.14,0-.21a3.63,3.63,0,0,1,1.06-2.59,3.58,3.58,0,0,1,2.58-1.09c6.62-.05,13.35,0,19.86,0h7.48a2.2,2.2,0,0,1-2.3,1.1ZM47.1,46.45A4.91,4.91,0,1,1,52,41.54,4.92,4.92,0,0,1,47.1,46.45Z"/></svg>