<svg id="Layer_1" data-name="Layer 1" xmlns="http://www.w3.org/2000/svg" viewBox="0 0 64 64"><defs><style>.cls-1{fill:#231f20;}</style></defs><path id="Path_34470" data-name="Path 34470" class="cls-1" d="M32.34,13.59H39c.51,1.29,1.08,2.56,1.53,3.88.28.86.74,1.23,1.63,1.07.7-.13,1,.14,1.3.85.59,1.66,1.27,3.28,1.94,4.95l1-.21a20.14,20.14,0,0,1,7.54-.32,1.27,1.27,0,0,1,1.21,1.33s0,.07,0,.11a1.34,1.34,0,0,1-1.44,1.24h-.08c-.26,0-.51-.07-.76-.09a16.56,16.56,0,0,0-6.42.55,18.33,18.33,0,0,1,.73,1.91c.2.74.57.94,1.35.9A7.23,7.23,0,0,1,56,35.28c.1.42.18.85.27,1.27v1c-.06.26-.13.53-.18.8a7.21,7.21,0,0,1-4.24,5.39,19,19,0,0,1-1.84.64H47.91c-.45-.13-.91-.23-1.35-.4a7,7,0,0,1-4.84-5.58,7.15,7.15,0,0,1,2.57-7c.25-.22.57-.67.5-.92A21,21,0,0,0,43.86,28a15.32,15.32,0,0,0-7.14,10.6H25.92l-.54-3.66-2.66,1v1.08a7.24,7.24,0,0,1-4.79,6.94c-.5.18-1,.31-1.52.46H14.32a6.08,6.08,0,0,0-.6-.21,7.29,7.29,0,0,1-5.38-5.37c-.1-.36-.19-.71-.28-1.06V36.56c.06-.3.14-.6.19-.91a7.33,7.33,0,0,1,8.56-5.81h.05a7.6,7.6,0,0,1,4.93,3.46l2.36-.88a14.92,14.92,0,0,0-5.25-4.86,27.5,27.5,0,0,0-9-3.18c-.85-.16-1.59-.39-1.88-1.31v-.39c.65-1.14.92-1.29,2.21-1,1.5.35,3,.66,4.49,1.14a28.9,28.9,0,0,0,8,1.46,16.22,16.22,0,0,0,12.8-4.55c.67-.68,1.23-1.52,2.51-1.16a10.72,10.72,0,0,1-.51-1.33c-.18-.8-.64-1-1.43-1-1.07.06-2.15,0-3.22,0-.82,0-1.38-.49-1.3-1.3C31.62,14.51,32.06,14.06,32.34,13.59Zm10.5,11.78c-.27-.71-.54-1.38-.8-2.05-.81-2.08-.81-2.05-3-2.1A2.51,2.51,0,0,0,37,22a15.94,15.94,0,0,1-7.61,4.23c-2,.47-4.14.67-6.09,1l3.6,4.22c.76-.27,1.61-.59,2.48-.88A1.37,1.37,0,0,1,30.76,33a1.5,1.5,0,0,1-.42.15c-.79.3-1.59.58-2.44.89a4.34,4.34,0,0,1,.21.88c0,.93.53,1.1,1.36,1.06,1.42-.07,2.84-.06,4.26,0a1,1,0,0,0,1.2-.85v0a16.73,16.73,0,0,1,6.6-8.88c.4-.27.83-.52,1.31-.82ZM20,36.85l-3.71,1.31c-1,.37-1.8.12-2.08-.66s.11-1.5,1.2-1.9L19,34.28a4.38,4.38,0,0,0-5.66-1.35,4.58,4.58,0,0,0,2.86,8.6,4.47,4.47,0,0,0,3.73-4.68ZM46,33.52a4.44,4.44,0,0,0-1.1,5.83,4.59,4.59,0,0,0,8.33-3.7,4.34,4.34,0,0,0-4.66-3.1c.47,1.21.94,2.41,1.4,3.61s.18,1.78-.6,2.1-1.5-.07-1.93-1.14-1-2.39-1.44-3.61Z"/></svg>