<svg id="Layer_1" data-name="Layer 1" xmlns="http://www.w3.org/2000/svg" viewBox="0 0 64 64"><defs><style>.cls-1{fill:#231f20;}</style></defs><path class="cls-1" d="M56.59,29.25A3.47,3.47,0,0,0,53,25.92H51.6c-.91,0-1.85,0-2.8,0a.52.52,0,0,1-.58-.39L48,25c-.36-.95-.73-1.93-1.17-2.86a12,12,0,0,0-11.09-7.33H35.6c-2.82-.08-5.68-.08-8.5,0H27a11.9,11.9,0,0,0-10.61,6.46,35.3,35.3,0,0,0-1.81,4.24.58.58,0,0,1-.68.44c-.69,0-1.38,0-2.05,0H10.67A3.44,3.44,0,0,0,7.3,29.44v3.88a3.22,3.22,0,0,0,0,1,3.53,3.53,0,0,0,4,3h6c.56,2.88,2.2,4.47,4.64,4.46H22a4.71,4.71,0,0,0,4.58-4.43h13a4.73,4.73,0,0,0,4.5,4.43h.13c2.42,0,4.07-1.58,4.64-4.44h4.41a3.46,3.46,0,0,0,3.34-3.56V29.51A1.13,1.13,0,0,0,56.59,29.25ZM33.23,25.88V17.31l.23,0a10.63,10.63,0,0,1,12.2,8.61Zm9.46,9.85a2.12,2.12,0,0,1,1.48-.64h0a2.1,2.1,0,0,1,0,4.19h-.11a2.1,2.1,0,0,1-1.43-3.56ZM19.81,37.17a2.13,2.13,0,0,1,2-2.1l.07,0A2.14,2.14,0,0,1,24,37.19a2.06,2.06,0,0,1-.62,1.48,2.11,2.11,0,0,1-1.48.61h0a2.08,2.08,0,0,1-2.09-2.11Zm-10-4.32H12V30.42H9.78c0-.1,0-.19,0-.28,0-.24,0-.46,0-.68,0-.71.42-1.05,1.2-1.05H52.63c1.19,0,1.48.29,1.48,1.46v3.69c0,.94-.34,1.29-1.25,1.29H52c-1.15,0-2.33,0-3.49,0a1,1,0,0,1-.63-.31,4.94,4.94,0,0,0-1.07-1.07,4.58,4.58,0,0,0-6.36,1.06.91.91,0,0,1-.63.31c-4.5,0-9.07,0-13.57,0a1,1,0,0,1-.69-.34,4.43,4.43,0,0,0-1-1,4.61,4.61,0,0,0-3.41-.83,4.55,4.55,0,0,0-3,1.81,1,1,0,0,1-.69.34c-2.08,0-4.21,0-6.26,0-1.21,0-1.49-.27-1.49-1.46Zm7.37-7a10.45,10.45,0,0,1,10-8.61c.79,0,1.58,0,2.41,0h1.16v8.61Z"/></svg>