<svg id="Layer_1" data-name="Layer 1" xmlns="http://www.w3.org/2000/svg" viewBox="0 0 64 64"><title>tasksldpi</title><path stroke="black" stroke-width="1" d="M25.57,22.11a.84.84,0,0,1,.84-.84h11a.84.84,0,1,1,0,1.68h-11A.84.84,0,0,1,25.57,22.11ZM38.29,37.69a.84.84,0,0,0-.84-.84h-11a.84.84,0,0,0,0,1.68h11A.84.84,0,0,0,38.29,37.69Zm3.12-22.92V48.51a.83.83,0,0,1-.84.84H13.84a.83.83,0,0,1-.83-.84V14.77a.83.83,0,0,1,.83-.83H40.57A.83.83,0,0,1,41.41,14.77ZM38.55,43.09h-1v1Zm-1.81,3.83H14.68v.76H39.74V44.27l-2.41,2.4A.8.8,0,0,1,36.74,46.92Zm-.83-1.68v-3a.84.84,0,0,1,.83-.84h3V15.61H14.68V45.24ZM53,20v7.61a.83.83,0,0,1-.83.83.84.84,0,0,1-.84-.83V20a.53.53,0,0,0-.53-.53h-.23V42.74a.79.79,0,0,1-.26.59l-2.3,4v1.2a.83.83,0,0,1-.83.84.84.84,0,0,1-.84-.84v-1.2l-2.3-4a.83.83,0,0,1-.25-.59V16.61a2.55,2.55,0,0,1,2.55-2.55H48a2.55,2.55,0,0,1,2.55,2.55V17.8h.23A2.2,2.2,0,0,1,53,20Zm-7.54,8.44V41.9h3.43V28.44Zm0-11.83V26.77h3.43V16.61a.87.87,0,0,0-.87-.88H46.33A.87.87,0,0,0,45.45,16.61Zm.66,27,1.06,1.83,1.06-1.83ZM26.41,30.74h11a.84.84,0,0,0,0-1.68h-11a.84.84,0,0,0,0,1.68Zm-3.86,4.08L19.48,37.9l-1.09-1.48a.82.82,0,0,0-.55-.33.85.85,0,0,0-.62.15.84.84,0,0,0-.33.55.85.85,0,0,0,.15.62l1.67,2.26a.83.83,0,0,0,.67.34.82.82,0,0,0,.59-.24L23.73,36a.84.84,0,0,0-1.18-1.19Zm0-14.79L19.48,23.1l-1.09-1.47a.8.8,0,0,0-.55-.33.81.81,0,0,0-.62.15.84.84,0,0,0-.33.55.85.85,0,0,0,.15.62l1.67,2.26a.83.83,0,0,0,.67.34A.87.87,0,0,0,20,25l3.76-3.76A.84.84,0,0,0,22.55,20Zm0,7.4L19.48,30.5,18.39,29a.8.8,0,0,0-.55-.33.83.83,0,0,0-.95.7A.85.85,0,0,0,17,30l1.67,2.26a.86.86,0,0,0,.67.34.83.83,0,0,0,.59-.25l3.76-3.76a.83.83,0,0,0,0-1.18A.85.85,0,0,0,22.55,27.43Z" style="fill:#231f20"/></svg>