<svg id="Layer_1" data-name="Layer 1" xmlns="http://www.w3.org/2000/svg" viewBox="0 0 64 64"><title>visit_1ldpi</title><path d="M54.63,48c0,5.43-9.38,9.52-21.82,9.52S11,53.46,11,48c0-3.5,4-6.59,10.78-8.26a1.15,1.15,0,0,1,1.39.84A1.14,1.14,0,0,1,22.32,42c-5.48,1.36-9,3.73-9,6,0,3.41,8,7.22,19.52,7.22S52.33,51.44,52.33,48c0-2.25-3.43-4.58-8.72-6a1.15,1.15,0,1,1,.57-2.22C50.82,41.57,54.63,44.55,54.63,48ZM27.84,21.29a5,5,0,1,1,5,5A5,5,0,0,1,27.84,21.29Zm2.3,0a2.67,2.67,0,1,0,2.67-2.67A2.67,2.67,0,0,0,30.14,21.29ZM16.33,24a10.14,10.14,0,0,1-.11-1.32,16.59,16.59,0,0,1,33.18,0c0,6.22-8.12,18-15.71,26.92a1.18,1.18,0,0,1-.88.4h0a1.18,1.18,0,0,1-.88-.4C28.57,45.63,17.51,32.06,16.33,24Zm2.19-1.32a7,7,0,0,0,.09,1c1,6.88,10.22,18.61,14.2,23.39,6.78-8.13,14.29-19,14.29-24.38a14.29,14.29,0,0,0-28.58,0Z" style="fill:#231f20"/></svg>