<svg id="Layer_1" data-name="Layer 1" xmlns="http://www.w3.org/2000/svg" viewBox="0 0 64 64"><title>visitldpi</title><path d="M24.38,34.76V19.69a4.1,4.1,0,0,1,4.1-4.09h7a4.1,4.1,0,0,1,4.1,4.09V34.76a1,1,0,0,1-2,0V19.69a2.08,2.08,0,0,0-2.08-2.07h-7a2.08,2.08,0,0,0-2.08,2.07V34.76a1,1,0,0,1-2,0Zm3.07-24.38A4.55,4.55,0,1,1,32,14.93,4.55,4.55,0,0,1,27.45,10.38Zm2,0A2.53,2.53,0,1,0,32,7.86,2.53,2.53,0,0,0,29.47,10.38Zm9.6,32.83a1,1,0,0,0-.75.2,1,1,0,0,0-.39.67,1,1,0,0,0,.88,1.14c6.5.84,8.69,2.53,8.69,3.18C47.5,49.62,42,52,32,52s-15.5-2.38-15.5-3.6c0-.67,2.28-2.4,9-3.23a1,1,0,0,0,.68-.38A1,1,0,0,0,26,43.36a1,1,0,0,0-.74-.2c-6.87.84-10.81,2.75-10.81,5.24C14.48,52.26,23.56,54,32,54s17.52-1.76,17.52-5.62C49.52,46,45.71,44.07,39.07,43.21Zm-11.14-11v17a1,1,0,0,0,2,0v-17a1,1,0,0,0-2,0Zm6.11,0v17a1,1,0,0,0,2,0v-17a1,1,0,1,0-2,0Z" style="fill:#231f20"/></svg>