<svg id="Layer_1" data-name="Layer 1" xmlns="http://www.w3.org/2000/svg" viewBox="0 0 64 64"><title>warnign alertldpi</title><path d="M31.7,24a1.14,1.14,0,0,1,1.15,1.15V39.76a1.15,1.15,0,1,1-2.3,0V25.11A1.15,1.15,0,0,1,31.7,24Zm0,18.4a1.15,1.15,0,0,0-1.15,1.15v.91a1.15,1.15,0,1,0,2.3,0v-.91A1.14,1.14,0,0,0,31.7,42.36Zm23.78,9.73a1.14,1.14,0,0,1-1,.58H8.92a1.14,1.14,0,0,1-1-.57,1.13,1.13,0,0,1,0-1.15L30.48,11.9a1.17,1.17,0,0,1,1-.57h0a1.15,1.15,0,0,1,1,.56l23,39.05A1.13,1.13,0,0,1,55.48,52.09Zm-3-1.72-21-35.61L10.92,50.37Z" style="fill:#231f20"/></svg>